<?xml version="1.0" encoding="UTF-8" standalone="no"?>
<svg
   xmlns:dc="http://purl.org/dc/elements/1.1/"
   xmlns:cc="http://creativecommons.org/ns#"
   xmlns:rdf="http://www.w3.org/1999/02/22-rdf-syntax-ns#"
   xmlns:svg="http://www.w3.org/2000/svg"
   xmlns="http://www.w3.org/2000/svg"
   xmlns:sodipodi="http://sodipodi.sourceforge.net/DTD/sodipodi-0.dtd"
   xmlns:inkscape="http://www.inkscape.org/namespaces/inkscape"
   width="27.133567678mm"
   height="138.017496995mm"
   viewBox="0 0 27.133567678 138.017496995"
   version="1.1"
   id="svg2"
   inkscape:version="0.91 r13725"
   sodipodi:docname="tibia.svg">
  <metadata
     id="metadata18">
    <rdf:RDF>
      <cc:Work
         rdf:about="">
        <dc:format>image/svg+xml</dc:format>
        <dc:type
           rdf:resource="http://purl.org/dc/dcmitype/StillImage" />
      </cc:Work>
    </rdf:RDF>
  </metadata>
  <defs
     id="defs16" />
  <sodipodi:namedview
     pagecolor="#ffffff"
     bordercolor="#666666"
     borderopacity="1"
     objecttolerance="10"
     gridtolerance="10"
     guidetolerance="10"
     inkscape:pageopacity="0"
     inkscape:pageshadow="2"
     inkscape:window-width="748"
     inkscape:window-height="480"
     id="namedview14"
     showgrid="false"
     inkscape:zoom="0.4825797"
     inkscape:cx="48.071282"
     inkscape:cy="244.5192"
     inkscape:window-x="10"
     inkscape:window-y="34"
     inkscape:window-maximized="0"
     inkscape:current-layer="Sketch" />
  <g
     id="Sketch"
     transform="translate(44.777845,108.327159) scale(1,-1)">
    <circle
       cx="-30.6834022359"
       cy="60.5756777528"
       r="1.15"
       stroke="#000000"
       stroke-width="0.35 px"
       style="stroke-width:0.35;stroke-miterlimit:4;stroke-dasharray:none;fill:none;stroke:#0000ff;stroke-opacity:1"
       id="circle5" />
    <circle
       cx="-30.6834022359"
       cy="100.575677753"
       r="1.45"
       stroke="#000000"
       stroke-width="0.35 px"
       style="stroke-width:0.35;stroke-miterlimit:4;stroke-dasharray:none;fill:none;stroke:#0000ff;stroke-opacity:1"
       id="circle7" />
    <path
       id="Sketch_w0002"
       d="M -23.2242375658 99.79410087 A 112.0 112.0 0 0 1 -20.9416516558 62.8336183266 A 130.0 130.0 0 0 0 -27.8458857941 -17.1425882349 A 5.85950149241 5.85950149241 0 0 1 -28.3084022359 -19.4243222472 L -28.3084022359 -27.0493222472 A 2.375 2.375 0 1 0 -33.0584022359 -27.0493222472 L -33.0584022359 -19.4243222472 A 258.029595639 258.029595639 0 0 0 -31.7950101893 6.07840149771 A 101.0 101.0 0 0 1 -40.2128351591 57.5441916219 A 50.0 50.0 0 0 0 -37.0466689988 104.545417808 A 7.5 7.5 0 0 0 -23.2242375658 99.79410087 "
       stroke="#000000"
       stroke-width="0.35 px"
       style="stroke-width:0.35;stroke-miterlimit:4;stroke-dasharray:none;fill:none;fill-rule:evenodd;stroke:#006633;stroke-opacity:1" />
    <path
       id="Sketch_w0003"
       d="M -34.9596581771 94.4142140367 A 2.0 2.0 0 0 1 -37.9852250272 93.4389149065 A 46.0 46.0 0 0 1 -39.2457325718 66.9010181119 A 2.0 2.0 0 0 1 -35.9115288629 65.9531020407 A 7.5 7.5 0 0 0 -28.8826852429 67.856297116 A 2.0 2.0 0 0 1 -26.4267576229 70.1083847169 A 116.0 116.0 0 0 0 -27.7966832922 91.0664544241 A 2.0 2.0 0 0 1 -29.9828524092 93.1084674343 A 7.5 7.5 0 0 0 -34.9596581771 94.4142140367 "
       stroke="#000000"
       stroke-width="0.35 px"
       style="stroke-width:0.35;stroke-miterlimit:4;stroke-dasharray:none;fill:none;fill-rule:evenodd;stroke:#0000ff;stroke-opacity:1" />
    <path
       id="Sketch_w0004"
       d="M -31.0885696459 53.0866297913 A 7.5 7.5 0 0 1 -26.2845540574 54.501129646 A 2.0 2.0 0 0 0 -23.1361588228 53.1941672361 A 126.0 126.0 0 0 0 -23.3853805571 12.2530197445 A 2.0 2.0 0 0 0 -27.3557411774 12.6548391275 A 105.0 105.0 0 0 1 -33.0864062309 50.4348088483 A 2.0 2.0 0 0 0 -31.0885696459 53.0866297913 "
       stroke="#000000"
       stroke-width="0.35 px"
       style="stroke-width:0.35;stroke-miterlimit:4;stroke-dasharray:none;fill:none;fill-rule:evenodd;stroke:#0000ff;stroke-opacity:1" />
    <title
       id="title12">tibia</title>
  </g>
</svg>
