<?xml version="1.0" encoding="UTF-8" standalone="no"?>
<svg
   xmlns:dc="http://purl.org/dc/elements/1.1/"
   xmlns:cc="http://creativecommons.org/ns#"
   xmlns:rdf="http://www.w3.org/1999/02/22-rdf-syntax-ns#"
   xmlns:svg="http://www.w3.org/2000/svg"
   xmlns="http://www.w3.org/2000/svg"
   xmlns:sodipodi="http://sodipodi.sourceforge.net/DTD/sodipodi-0.dtd"
   xmlns:inkscape="http://www.inkscape.org/namespaces/inkscape"
   width="27.1853923665mm"
   height="138.018513165mm"
   viewBox="0 0 27.1853923665 138.018513165"
   version="1.1"
   id="svg6195"
   sodipodi:docname="tibia.svg"
   inkscape:version="0.92.1 r15371">
  <metadata
     id="metadata6201">
    <rdf:RDF>
      <cc:Work
         rdf:about="">
        <dc:format>image/svg+xml</dc:format>
        <dc:type
           rdf:resource="http://purl.org/dc/dcmitype/StillImage" />
      </cc:Work>
    </rdf:RDF>
  </metadata>
  <defs
     id="defs6199" />
  <sodipodi:namedview
     pagecolor="#ffffff"
     bordercolor="#666666"
     borderopacity="1"
     objecttolerance="10"
     gridtolerance="10"
     guidetolerance="10"
     inkscape:pageopacity="0"
     inkscape:pageshadow="2"
     inkscape:window-width="732"
     inkscape:window-height="480"
     id="namedview6197"
     showgrid="false"
     inkscape:zoom="0.90483033"
     inkscape:cx="60.936073"
     inkscape:cy="302.53661"
     inkscape:window-x="0"
     inkscape:window-y="0"
     inkscape:window-maximized="0"
     inkscape:current-layer="Sketch" />
  <g
     id="Sketch"
     transform="translate(59.380994,112.886207) scale(1,-1)">
    <path
       id="Sketch_w0000"
       d="M -47.51860317 6.66316021645 A 133.873046078 133.873046078 0 0 1 -49.2610431453 -14.8657830261 L -49.2610431453 -24.8657830261 L -46.8110431453 -24.8657830261 L -46.8110431453 -19.8657830261 L -43.8110431453 -19.8657830261 L -43.8110431453 -24.8657830261 L -41.3110431453 -24.8657830261 L -41.3110431453 -14.8657830261 A 38.9907481322 38.9907481322 0 0 0 -39.1792655561 -2.14985874124 A 126.0 126.0 0 0 1 -35.5442925652 67.3921575477 A 112.0 112.0 0 0 0 -37.8268784752 104.352640091 A 7.5 7.5 0 0 1 -51.6493099081 109.103957029 A 50.0 50.0 0 0 1 -54.8154760685 62.102730843 A 97.0 97.0 0 0 0 -47.51860317 6.66316021645 "
       stroke="#000000"
       stroke-width="0.35 px"
       style="stroke-width:0.35;stroke-miterlimit:4;stroke-dasharray:none;fill:none;fill-rule:evenodd;stroke:#006633;stroke-opacity:1" />
    <circle
       cx="-45.2860431453"
       cy="65.1342169739"
       r="1.15"
       stroke="#000000"
       stroke-width="0.35 px"
       style="stroke-width:0.35;stroke-miterlimit:4;stroke-dasharray:none;fill:none;stroke:#0000ff;stroke-opacity:1"
       id="circle6186" />
    <circle
       cx="-45.2860431453"
       cy="105.134216974"
       r="1.45"
       stroke="#000000"
       stroke-width="0.35 px"
       style="stroke-width:0.35;stroke-miterlimit:4;stroke-dasharray:none;fill:none;stroke:#0000ff;stroke-opacity:1"
       id="circle6188" />
    <path
       id="Sketch_w0003"
       d="M -49.5622990865 98.9727532578 A 2.0 2.0 0 0 1 -52.5878659366 97.9974541276 A 46.0 46.0 0 0 1 -53.8483734812 71.4595573331 A 2.0 2.0 0 0 1 -50.5141697723 70.5116412619 A 7.5 7.5 0 0 0 -43.4853261523 72.4148363371 A 2.0 2.0 0 0 1 -41.0293985323 74.666923938 A 116.0 116.0 0 0 0 -42.3993242016 95.6249936452 A 2.0 2.0 0 0 1 -44.5854933186 97.6670066555 A 7.5 7.5 0 0 0 -49.5622990865 98.9727532578 "
       stroke="#000000"
       stroke-width="0.35 px"
       style="stroke-width:0.35;stroke-miterlimit:4;stroke-dasharray:none;fill:none;fill-rule:evenodd;stroke:#0000ff;stroke-opacity:1" />
    <path
       id="Sketch_w0004"
       d="M -45.7054284926 57.6459517589 A 7.5 7.5 0 0 1 -40.8945992635 59.0543139622 A 2.0 2.0 0 0 0 -37.7474341898 57.7411881619 A 122.0 122.0 0 0 0 -38.4570521854 16.0514801822 A 2.0 2.0 0 0 0 -42.418319972 16.5400487187 A 101.0 101.0 0 0 1 -47.7092805846 55.0007944793 A 2.0 2.0 0 0 0 -45.7054284926 57.6459517589 "
       stroke="#000000"
       stroke-width="0.35 px"
       style="stroke-width:0.35;stroke-miterlimit:4;stroke-dasharray:none;fill:none;fill-rule:evenodd;stroke:#0000ff;stroke-opacity:1" />
    <title
       id="title6192">tibia</title>
  </g>
</svg>
