<?xml version="1.0" encoding="UTF-8" standalone="no"?>
<svg
   xmlns:dc="http://purl.org/dc/elements/1.1/"
   xmlns:cc="http://creativecommons.org/ns#"
   xmlns:rdf="http://www.w3.org/1999/02/22-rdf-syntax-ns#"
   xmlns:svg="http://www.w3.org/2000/svg"
   xmlns="http://www.w3.org/2000/svg"
   xmlns:sodipodi="http://sodipodi.sourceforge.net/DTD/sodipodi-0.dtd"
   xmlns:inkscape="http://www.inkscape.org/namespaces/inkscape"
   width="189.697634007mm"
   height="201.264275193mm"
   viewBox="0 0 189.697634007 201.264275193"
   version="1.1"
   id="svg4599"
   sodipodi:docname="body_up.svg"
   inkscape:version="0.92.1 r15371">
  <metadata
     id="metadata4605">
    <rdf:RDF>
      <cc:Work
         rdf:about="">
        <dc:format>image/svg+xml</dc:format>
        <dc:type
           rdf:resource="http://purl.org/dc/dcmitype/StillImage" />
      </cc:Work>
    </rdf:RDF>
  </metadata>
  <defs
     id="defs4603" />
  <sodipodi:namedview
     pagecolor="#ffffff"
     bordercolor="#666666"
     borderopacity="1"
     objecttolerance="10"
     gridtolerance="10"
     guidetolerance="10"
     inkscape:pageopacity="0"
     inkscape:pageshadow="2"
     inkscape:window-width="1138"
     inkscape:window-height="1008"
     id="namedview4601"
     showgrid="false"
     inkscape:zoom="0.8022797"
     inkscape:cx="281.12603"
     inkscape:cy="380.34195"
     inkscape:window-x="-7"
     inkscape:window-y="0"
     inkscape:window-maximized="0"
     inkscape:current-layer="Sketch008" />
  <g
     id="Sketch008"
     transform="translate(94.848817,106.726500) scale(1,-1)">
    <circle
       cx="49.8528137424"
       cy="84.8528137423"
       r="1.45"
       stroke="#000000"
       stroke-width="0.35 px"
       style="stroke-width:0.35;stroke-miterlimit:4;stroke-dasharray:none;fill:none;stroke:#0000ff;stroke-opacity:1"
       id="circle4558" />
    <circle
       cx="85.0"
       cy="-9.6359378497e-30"
       r="1.45"
       stroke="#000000"
       stroke-width="0.35 px"
       style="stroke-width:0.35;stroke-miterlimit:4;stroke-dasharray:none;fill:none;stroke:#0000ff;stroke-opacity:1"
       id="circle4560" />
    <circle
       cx="49.8528137424"
       cy="-84.8528137423"
       r="1.45"
       stroke="#000000"
       stroke-width="0.35 px"
       style="stroke-width:0.35;stroke-miterlimit:4;stroke-dasharray:none;fill:none;stroke:#0000ff;stroke-opacity:1"
       id="circle4562" />
    <path
       id="Sketch008_w0003"
       d="M 56.411280752 -39.9852448918 A 19.0 19.0 0 0 0 65.4957077265 -62.5974802737 L 57.4612658728 -87.3249496973 A 8.0 8.0 0 1 0 42.2443616121 -82.3806777873 L 50.2788034658 -57.6532083637 A 3.0 3.0 0 0 1 48.8444202593 -54.0828554086 A 103.280709999 103.280709999 0 0 1 -48.8444202593 -54.0828554086 A 3.0 3.0 0 0 1 -50.2788034658 -57.6532083637 L -42.2443616121 -82.3806777873 A 8.0 8.0 0 1 0 -57.4612658728 -87.3249496973 L -65.4957077265 -62.5974802737 A 19.0 19.0 0 0 0 -56.411280752 -39.9852448918 A 33.1946624034 33.1946624034 0 0 1 -62.5293119354 21.0446043246 A 3.0 3.0 0 0 1 -66.0681948133 19.534245631 L -77.8719478065 -3.63192399791 A 8.0 8.0 0 0 0 -92.1280521935 3.63192399791 L -80.3242992003 26.7980936268 A 19.0 19.0 0 0 0 -57.9113743071 36.3636986862 A 33.1946624034 33.1946624034 0 0 1 -19.0828554087 83.8444202592 A 3.0 3.0 0 0 1 -22.6532083638 85.2788034657 L -47.3806777874 77.244361612 A 8.0 8.0 0 0 0 -52.3249496974 92.4612658727 L -27.5974802738 100.495707726 A 89.3073221735 89.3073221735 0 0 0 27.5974802738 100.495707726 L 52.3249496974 92.4612658727 A 8.0 8.0 0 0 0 47.3806777874 77.244361612 L 22.6532083638 85.2788034657 A 3.0 3.0 0 0 1 19.0828554087 83.8444202592 A 33.1946624034 33.1946624034 0 0 1 57.9113743071 36.3636986862 A 19.0 19.0 0 0 0 80.3242992003 26.7980936268 L 92.1280521935 3.63192399791 A 8.0 8.0 0 0 0 77.8719478065 -3.63192399791 L 66.0681948133 19.534245631 A 3.0 3.0 0 0 1 62.5293119354 21.0446043246 A 33.1946624034 33.1946624034 0 0 1 56.411280752 -39.9852448918 "
       stroke="#000000"
       stroke-width="0.35 px"
       style="stroke-width:0.35;stroke-miterlimit:4;stroke-dasharray:none;fill:none;fill-rule:evenodd;stroke:#006633;stroke-opacity:1" />
    <circle
       cx="-85.0"
       cy="7.448449319e-28"
       r="1.45"
       stroke="#000000"
       stroke-width="0.35 px"
       style="stroke-width:0.35;stroke-miterlimit:4;stroke-dasharray:none;fill:none;stroke:#0000ff;stroke-opacity:1"
       id="circle4565" />
    <circle
       cx="-49.8528137424"
       cy="84.8528137423"
       r="1.45"
       stroke="#000000"
       stroke-width="0.35 px"
       style="stroke-width:0.35;stroke-miterlimit:4;stroke-dasharray:none;fill:none;stroke:#0000ff;stroke-opacity:1"
       id="circle4567" />
    <circle
       cx="-49.8528137424"
       cy="-84.8528137423"
       r="1.45"
       stroke="#000000"
       stroke-width="0.35 px"
       style="stroke-width:0.35;stroke-miterlimit:4;stroke-dasharray:none;fill:none;stroke:#0000ff;stroke-opacity:1"
       id="circle4569" />
    <title
       id="title4571">body_up</title>
    <path
       id="Sketch010_w0000"
       d="M 43.8308611674 -40.643122093 A 0.5 0.5 0 1 1 43.8329819533 -39.6431243419 L 42.0084366429 -37.8108236266 A 0.5 0.5 0 1 1 41.0084388918 -37.8087028407 L 39.8847429895 -38.9276425821 A 0.5 0.5 0 1 1 39.8826222036 -39.9276403333 L 40.2354249881 -40.2819427398 A 0.498572012908 0.498572012908 0 0 0 39.6723875941 -41.0860434717 L 39.2187865783 -40.8756958584 A 0.5 0.5 0 1 1 38.2798214222 -41.2197081194 L 37.6126886376 -42.6583367975 A 0.5 0.5 0 0 1 37.9567008986 -43.5973019536 L 40.3025316084 -44.6851299648 A 0.5 0.5 0 0 1 41.2414967645 -44.3411177037 L 42.2061059966 -42.2610003171 L 43.8308611674 -40.643122093 "
       stroke="#000000"
       stroke-width="0.35 px"
       style="stroke-width:0.35;stroke-miterlimit:4;stroke-dasharray:none;fill:none;fill-rule:evenodd;stroke:#0000ff;stroke-opacity:1" />
    <path
       id="Sketch010_w0001"
       d="M 33.2399006872 -33.2566832915 A 0.5 0.5 0 0 1 34.2398984383 -33.2588040774 L 35.3635943405 -32.1398643359 A 0.5 0.5 0 1 1 35.3657151264 -31.1398665848 L 33.541169816 -29.3075658695 A 0.5 0.5 0 0 1 32.5411720649 -29.3054450836 L 31.4174761627 -30.4243848251 A 0.5 0.5 0 0 1 31.4153553768 -31.4243825762 L 33.2399006872 -33.2566832915 "
       stroke="#000000"
       stroke-width="0.35 px"
       style="stroke-width:0.35;stroke-miterlimit:4;stroke-dasharray:none;fill:none;fill-rule:evenodd;stroke:#0000ff;stroke-opacity:1" />
    <path
       id="Sketch010_w0002"
       d="M 29.4161072278 -39.6367872462 A 0.5 0.5 0 1 1 30.3550723838 -39.2927749851 L 31.0222051685 -37.854146307 A 0.5 0.5 0 0 1 30.6781929074 -36.915181151 L 28.3323621976 -35.8273531398 A 0.5 0.5 0 0 1 27.3933970416 -36.1713654008 L 26.7262642569 -37.6099940789 A 0.5 0.5 0 0 1 27.070276518 -38.548959235 L 29.4161072278 -39.6367872462 "
       stroke="#000000"
       stroke-width="0.35 px"
       style="stroke-width:0.35;stroke-miterlimit:4;stroke-dasharray:none;fill:none;fill-rule:evenodd;stroke:#0000ff;stroke-opacity:1" />
    <circle
       cx="35.4472855238"
       cy="-37.5284232726"
       r="1.45"
       stroke="#000000"
       stroke-width="0.35 px"
       style="stroke-width:0.35;stroke-miterlimit:4;stroke-dasharray:none;fill:none;stroke:#0000ff;stroke-opacity:1"
       id="circle4576" />
    <path
       id="Sketch010_w0004"
       d="M -41.2414967645 -44.3411177037 A 0.5 0.5 0 1 1 -40.3025316084 -44.6851299648 L -37.9567008986 -43.5973019536 A 0.5 0.5 0 1 1 -37.6126886376 -42.6583367975 L -38.2798214222 -41.2197081194 A 0.5 0.5 0 1 1 -39.2187865783 -40.8756958584 L -39.6723875941 -41.0860434717 A 0.498572012908 0.498572012908 0 0 0 -40.2354249881 -40.2819427398 L -39.8826222036 -39.9276403333 A 0.5 0.5 0 1 1 -39.8847429895 -38.9276425821 L -41.0084388918 -37.8087028407 A 0.5 0.5 0 0 1 -42.0084366429 -37.8108236266 L -43.8329819533 -39.6431243419 A 0.5 0.5 0 1 1 -43.8308611674 -40.643122093 L -42.2061059966 -42.2610003171 L -41.2414967645 -44.3411177037 "
       stroke="#000000"
       stroke-width="0.35 px"
       style="stroke-width:0.35;stroke-miterlimit:4;stroke-dasharray:none;fill:none;fill-rule:evenodd;stroke:#0000ff;stroke-opacity:1" />
    <path
       id="Sketch010_w0005"
       d="M -30.6781929074 -36.915181151 A 0.5 0.5 0 0 1 -31.0222051685 -37.854146307 L -30.3550723838 -39.2927749851 A 0.5 0.5 0 1 1 -29.4161072278 -39.6367872462 L -27.070276518 -38.548959235 A 0.5 0.5 0 1 1 -26.7262642569 -37.6099940789 L -27.3933970416 -36.1713654008 A 0.5 0.5 0 0 1 -28.3323621976 -35.8273531398 L -30.6781929074 -36.915181151 "
       stroke="#000000"
       stroke-width="0.35 px"
       style="stroke-width:0.35;stroke-miterlimit:4;stroke-dasharray:none;fill:none;fill-rule:evenodd;stroke:#0000ff;stroke-opacity:1" />
    <path
       id="Sketch010_w0006"
       d="M -35.3657151264 -31.1398665848 A 0.5 0.5 0 0 1 -35.3635943405 -32.1398643359 L -34.2398984383 -33.2588040774 A 0.5 0.5 0 0 1 -33.2399006872 -33.2566832915 L -31.4153553768 -31.4243825762 A 0.5 0.5 0 0 1 -31.4174761627 -30.4243848251 L -32.5411720649 -29.3054450836 A 0.5 0.5 0 1 1 -33.541169816 -29.3075658695 L -35.3657151264 -31.1398665848 "
       stroke="#000000"
       stroke-width="0.35 px"
       style="stroke-width:0.35;stroke-miterlimit:4;stroke-dasharray:none;fill:none;fill-rule:evenodd;stroke:#0000ff;stroke-opacity:1" />
    <circle
       cx="-35.4472855238"
       cy="-37.5284232726"
       r="1.45"
       stroke="#000000"
       stroke-width="0.35 px"
       style="stroke-width:0.35;stroke-miterlimit:4;stroke-dasharray:none;fill:none;stroke:#0000ff;stroke-opacity:1"
       id="circle4581" />
    <path
       id="Sketch011_w0000"
       d="M 53.0093662682 28.9899793736 A 0.5 0.5 0 0 1 52.2286076338 29.614812115 L 49.6585862359 29.3297129828 A 0.5 0.5 0 1 1 49.0337534945 28.5489543484 L 49.2085963704 26.9728361439 A 0.5 0.5 0 1 1 49.9893550048 26.3480034025 L 50.4863066015 26.4031315306 A 0.498572012908 0.498572012908 0 0 0 50.7643082046 25.4616942238 L 50.317126073 25.2380245094 A 0.5 0.5 0 0 1 50.0010317812 24.2892967304 L 50.7104165805 22.8710260114 A 0.5 0.5 0 0 1 51.6591443596 22.5549317196 L 53.9717793418 23.7116559478 A 0.5 0.5 0 1 1 54.2878736336 24.6603837268 L 53.2621720906 26.7110654812 L 53.0093662682 28.9899793736 "
       stroke="#000000"
       stroke-width="0.35 px"
       style="stroke-width:0.35;stroke-miterlimit:4;stroke-dasharray:none;fill:none;fill-rule:evenodd;stroke:#0000ff;stroke-opacity:1" />
    <path
       id="Sketch011_w0001"
       d="M 40.6325380813 25.3100274591 A 0.5 0.5 0 1 1 41.2573708228 26.0907860935 L 41.0825279469 27.666904298 A 0.5 0.5 0 1 1 40.3017693124 28.2917370395 L 37.7317479145 28.0066379073 A 0.5 0.5 0 1 1 37.1069151731 27.2258792728 L 37.281758049 25.6497610684 A 0.5 0.5 0 1 1 38.0625166834 25.0249283269 L 40.6325380813 25.3100274591 "
       stroke="#000000"
       stroke-width="0.35 px"
       style="stroke-width:0.35;stroke-miterlimit:4;stroke-dasharray:none;fill:none;fill-rule:evenodd;stroke:#0000ff;stroke-opacity:1" />
    <path
       id="Sketch011_w0002"
       d="M 43.2394081827 18.3435828016 A 0.5 0.5 0 1 1 43.5555024744 19.2923105806 L 42.8461176752 20.7105812996 A 0.5 0.5 0 0 1 41.8973898961 21.0266755913 L 39.5847549139 19.8699513632 A 0.5 0.5 0 0 1 39.2686606221 18.9212235842 L 39.9780454214 17.5029528652 A 0.5 0.5 0 0 1 40.9267732004 17.1868585734 L 43.2394081827 18.3435828016 "
       stroke="#000000"
       stroke-width="0.35 px"
       style="stroke-width:0.35;stroke-miterlimit:4;stroke-dasharray:none;fill:none;fill-rule:evenodd;stroke:#0000ff;stroke-opacity:1" />
    <circle
       cx="45.3489772746"
       cy="24.3743396802"
       r="1.45"
       stroke="#000000"
       stroke-width="0.35 px"
       style="stroke-width:0.35;stroke-miterlimit:4;stroke-dasharray:none;fill:none;stroke:#0000ff;stroke-opacity:1"
       id="circle4586" />
    <path
       id="Sketch011_w0004"
       d="M -54.2878736336 24.6603837268 A 0.5 0.5 0 0 1 -53.9717793418 23.7116559478 L -51.6591443596 22.5549317196 A 0.5 0.5 0 0 1 -50.7104165805 22.8710260114 L -50.0010317812 24.2892967304 A 0.5 0.5 0 0 1 -50.317126073 25.2380245094 L -50.7643082046 25.4616942238 A 0.498572012908 0.498572012908 0 0 0 -50.4863066015 26.4031315306 L -49.9893550048 26.3480034025 A 0.5 0.5 0 1 1 -49.2085963704 26.9728361439 L -49.0337534945 28.5489543484 A 0.5 0.5 0 0 1 -49.6585862359 29.3297129828 L -52.2286076338 29.614812115 A 0.5 0.5 0 0 1 -53.0093662682 28.9899793736 L -53.2621720906 26.7110654812 L -54.2878736336 24.6603837268 "
       stroke="#000000"
       stroke-width="0.35 px"
       style="stroke-width:0.35;stroke-miterlimit:4;stroke-dasharray:none;fill:none;fill-rule:evenodd;stroke:#0000ff;stroke-opacity:1" />
    <path
       id="Sketch011_w0005"
       d="M -41.8973898961 21.0266755913 A 0.5 0.5 0 1 1 -42.8461176752 20.7105812996 L -43.5555024744 19.2923105806 A 0.5 0.5 0 1 1 -43.2394081827 18.3435828016 L -40.9267732004 17.1868585734 A 0.5 0.5 0 1 1 -39.9780454214 17.5029528652 L -39.2686606221 18.9212235842 A 0.5 0.5 0 1 1 -39.5847549139 19.8699513632 L -41.8973898961 21.0266755913 "
       stroke="#000000"
       stroke-width="0.35 px"
       style="stroke-width:0.35;stroke-miterlimit:4;stroke-dasharray:none;fill:none;fill-rule:evenodd;stroke:#0000ff;stroke-opacity:1" />
    <path
       id="Sketch011_w0006"
       d="M -40.3017693124 28.2917370395 A 0.5 0.5 0 1 1 -41.0825279469 27.666904298 L -41.2573708228 26.0907860935 A 0.5 0.5 0 0 1 -40.6325380813 25.3100274591 L -38.0625166834 25.0249283269 A 0.5 0.5 0 1 1 -37.281758049 25.6497610684 L -37.1069151731 27.2258792728 A 0.5 0.5 0 0 1 -37.7317479145 28.0066379073 L -40.3017693124 28.2917370395 "
       stroke="#000000"
       stroke-width="0.35 px"
       style="stroke-width:0.35;stroke-miterlimit:4;stroke-dasharray:none;fill:none;fill-rule:evenodd;stroke:#0000ff;stroke-opacity:1" />
    <circle
       cx="-45.3489772746"
       cy="24.3743396802"
       r="1.45"
       stroke="#000000"
       stroke-width="0.35 px"
       style="stroke-width:0.35;stroke-miterlimit:4;stroke-dasharray:none;fill:none;stroke:#0000ff;stroke-opacity:1"
       id="circle4591" />
    <path
       id="Sketch012_w0000"
       d="M 1.98570377566 74.8535533906 A 0.5 0.5 0 0 1 2.95162960195 75.1123724357 L 4.24452282076 77.3517291794 A 0.5 0.5 0 1 1 3.98570377566 78.3176550057 L 2.6123724357 79.1105482245 A 0.5 0.5 0 0 1 1.64644660941 78.8517291794 L 1.39644660941 78.4187164775 A 1.6124776517 1.6124776517 0 0 0 -1.39644660941 78.4187164775 L -1.64644660941 78.8517291794 A 0.5 0.5 0 0 1 -2.6123724357 79.1105482245 L -3.98570377566 78.3176550057 A 0.5 0.5 0 1 1 -4.24452282076 77.3517291794 L -2.95162960195 75.1123724357 A 0.5 0.5 0 1 1 -1.98570377566 74.8535533906 L 0.0 76.0 L 1.98570377566 74.8535533906 "
       stroke="#000000"
       stroke-width="0.35 px"
       style="stroke-width:0.35;stroke-miterlimit:4;stroke-dasharray:none;fill:none;fill-rule:evenodd;stroke:#0000ff;stroke-opacity:1" />
    <path
       id="Sketch012_w0001"
       d="M 10.3535533906 93.9328805114 A 0.5 0.5 0 0 1 10.6123724357 92.9669546851 L 11.9857037757 92.1740614663 A 0.5 0.5 0 0 1 12.9516296019 92.4328805114 L 14.2445228208 94.6722372551 A 0.5 0.5 0 1 1 13.9857037757 95.6381630814 L 12.6123724357 96.4310563002 A 0.5 0.5 0 1 1 11.6464466094 96.1722372551 L 10.3535533906 93.9328805114 "
       stroke="#000000"
       stroke-width="0.35 px"
       style="stroke-width:0.35;stroke-miterlimit:4;stroke-dasharray:none;fill:none;fill-rule:evenodd;stroke:#0000ff;stroke-opacity:1" />
    <path
       id="Sketch012_w0002"
       d="M -12.9516296019 92.4328805114 A 0.5 0.5 0 1 1 -11.9857037757 92.1740614663 L -10.6123724357 92.9669546851 A 0.5 0.5 0 0 1 -10.3535533906 93.9328805114 L -11.6464466094 96.1722372551 A 0.5 0.5 0 0 1 -12.6123724357 96.4310563002 L -13.9857037757 95.6381630814 A 0.5 0.5 0 0 1 -14.2445228208 94.6722372551 L -12.9516296019 92.4328805114 "
       stroke="#000000"
       stroke-width="0.35 px"
       style="stroke-width:0.35;stroke-miterlimit:4;stroke-dasharray:none;fill:none;fill-rule:evenodd;stroke:#0000ff;stroke-opacity:1" />
    <circle
       cx="-3.59906635964e-23"
       cy="84.7846096908"
       r="1.45"
       stroke="#000000"
       stroke-width="0.35 px"
       style="stroke-width:0.35;stroke-miterlimit:4;stroke-dasharray:none;fill:none;stroke:#0000ff;stroke-opacity:1"
       id="circle4596" />
  </g>
</svg>
