<?xml version="1.0" encoding="UTF-8" standalone="no"?>
<svg
   xmlns:dc="http://purl.org/dc/elements/1.1/"
   xmlns:cc="http://creativecommons.org/ns#"
   xmlns:rdf="http://www.w3.org/1999/02/22-rdf-syntax-ns#"
   xmlns:svg="http://www.w3.org/2000/svg"
   xmlns="http://www.w3.org/2000/svg"
   xmlns:sodipodi="http://sodipodi.sourceforge.net/DTD/sodipodi-0.dtd"
   xmlns:inkscape="http://www.inkscape.org/namespaces/inkscape"
   width="197.084898225mm"
   height="197.540203363mm"
   viewBox="0 0 197.084898225 197.540203363"
   version="1.1"
   id="svg4361"
   inkscape:version="0.91 r13725"
   sodipodi:docname="body_up.svg">
  <metadata
     id="metadata4386">
    <rdf:RDF>
      <cc:Work
         rdf:about="">
        <dc:format>image/svg+xml</dc:format>
        <dc:type
           rdf:resource="http://purl.org/dc/dcmitype/StillImage" />
      </cc:Work>
    </rdf:RDF>
  </metadata>
  <defs
     id="defs4384" />
  <sodipodi:namedview
     pagecolor="#ffffff"
     bordercolor="#666666"
     borderopacity="1"
     objecttolerance="10"
     gridtolerance="10"
     guidetolerance="10"
     inkscape:pageopacity="0"
     inkscape:pageshadow="2"
     inkscape:window-width="1920"
     inkscape:window-height="1131"
     id="namedview4382"
     showgrid="false"
     inkscape:zoom="0.95365809"
     inkscape:cx="339.11073"
     inkscape:cy="447.76814"
     inkscape:window-x="1680"
     inkscape:window-y="24"
     inkscape:window-maximized="1"
     inkscape:current-layer="Sketch002" />
  <g
     id="Sketch002"
     transform="translate(259.453545,127.351553) scale(1,-1)">
    <path
       id="Sketch002_w0000"
       d="M -78.5083712921 16.865899033 A 12.0 12.0 0 1 1 -78.5083712921 40.297003204 A 34.6304329381 34.6304329381 0 0 0 -104.610686882 103.313567511 A 12.0 12.0 0 1 1 -120.888106714 120.317182097 A 48.859048195 48.859048195 0 0 0 -200.934085136 120.317182097 A 12.0 12.0 0 1 1 -217.211504967 103.313567511 A 34.6304329381 34.6304329381 0 0 0 -243.313820558 40.297003204 A 12.0 12.0 0 1 1 -243.313820558 16.865899033 A 34.6304329382 34.6304329382 0 0 0 -217.211504967 -46.1506652742 A 12.0 12.0 0 1 1 -200.934085136 -63.1542798601 A 48.859048195 48.859048195 0 0 0 -120.888106714 -63.1542798601 A 12.0 12.0 0 1 1 -104.610686882 -46.1506652742 A 34.6304329382 34.6304329382 0 0 0 -78.5083712921 16.865899033 "
       stroke="#000000"
       stroke-width="0.35 px"
       style="stroke-width:0.35;stroke-miterlimit:4;stroke-dasharray:none;fill:none;fill-rule:evenodd;stroke:#006633;stroke-opacity:1" />
    <circle
       cx="-111.058282182"
       cy="113.434264861"
       r="1.45"
       stroke="#000000"
       stroke-width="0.35 px"
       style="stroke-width:0.35;stroke-miterlimit:4;stroke-dasharray:none;fill:none;stroke:#0000ff;stroke-opacity:1"
       id="circle4365" />
    <circle
       cx="-75.9110959248"
       cy="28.5814511185"
       r="1.45"
       stroke="#000000"
       stroke-width="0.35 px"
       style="stroke-width:0.35;stroke-miterlimit:4;stroke-dasharray:none;fill:none;stroke:#0000ff;stroke-opacity:1"
       id="circle4367" />
    <circle
       cx="-111.058282182"
       cy="-56.2713626239"
       r="1.45"
       stroke="#000000"
       stroke-width="0.35 px"
       style="stroke-width:0.35;stroke-miterlimit:4;stroke-dasharray:none;fill:none;stroke:#0000ff;stroke-opacity:1"
       id="circle4369" />
    <circle
       cx="-210.763909667"
       cy="113.434264861"
       r="1.45"
       stroke="#000000"
       stroke-width="0.35 px"
       style="stroke-width:0.35;stroke-miterlimit:4;stroke-dasharray:none;fill:none;stroke:#0000ff;stroke-opacity:1"
       id="circle4371" />
    <circle
       cx="-245.911095925"
       cy="28.5814511185"
       r="1.45"
       stroke="#000000"
       stroke-width="0.35 px"
       style="stroke-width:0.35;stroke-miterlimit:4;stroke-dasharray:none;fill:none;stroke:#0000ff;stroke-opacity:1"
       id="circle4373" />
    <circle
       cx="-210.763909667"
       cy="-56.2713626239"
       r="1.45"
       stroke="#000000"
       stroke-width="0.35 px"
       style="stroke-width:0.35;stroke-miterlimit:4;stroke-dasharray:none;fill:none;stroke:#0000ff;stroke-opacity:1"
       id="circle4375" />
    <path
       id="Sketch002_w0007"
       d="M -130.252295925 88.7816511185 L -191.569895925 88.7816511185 L -191.569895925 49.6133511185 L -130.252295925 49.6133511185 L -130.252295925 88.7816511185 "
       stroke="#000000"
       stroke-width="0.35 px"
       style="stroke-width:0.35;stroke-miterlimit:4;stroke-dasharray:none;fill:none;fill-rule:evenodd;stroke:#0000ff;stroke-opacity:1" />
    <path
       id="Sketch002_w0008"
       d="M -191.569895925 -31.6187488815 L -130.252295925 -31.6187488815 L -130.252295925 7.54955111848 L -191.569895925 7.54955111848 L -191.569895925 -31.6187488815 "
       stroke="#000000"
       stroke-width="0.35 px"
       style="stroke-width:0.35;stroke-miterlimit:4;stroke-dasharray:none;fill:none;fill-rule:evenodd;stroke:#0000ff;stroke-opacity:1" />
    <path
       id="Sketch002_w0009"
       d="M -208.035295925 37.7444711185 L -208.035295925 19.4184311185 L -113.786895925 19.4184311185 L -113.786895925 37.7444711185 L -208.035295925 37.7444711185 "
       stroke="#000000"
       stroke-width="0.35 px"
       style="stroke-width:0.35;stroke-miterlimit:4;stroke-dasharray:none;fill:none;fill-rule:evenodd;stroke:#0000ff;stroke-opacity:1" />
    <title
       id="title4380">body_up</title>
  </g>
</svg>
