<?xml version="1.0" encoding="UTF-8" standalone="no"?>
<svg
   xmlns:dc="http://purl.org/dc/elements/1.1/"
   xmlns:cc="http://creativecommons.org/ns#"
   xmlns:rdf="http://www.w3.org/1999/02/22-rdf-syntax-ns#"
   xmlns:svg="http://www.w3.org/2000/svg"
   xmlns="http://www.w3.org/2000/svg"
   xmlns:sodipodi="http://sodipodi.sourceforge.net/DTD/sodipodi-0.dtd"
   xmlns:inkscape="http://www.inkscape.org/namespaces/inkscape"
   width="24.786mm"
   height="43.986mm"
   viewBox="0 0 24.786 43.986"
   version="1.1"
   id="svg8364"
   inkscape:version="0.91 r13725"
   sodipodi:docname="support_big.svg">
  <metadata
     id="metadata8375">
    <rdf:RDF>
      <cc:Work
         rdf:about="">
        <dc:format>image/svg+xml</dc:format>
        <dc:type
           rdf:resource="http://purl.org/dc/dcmitype/StillImage" />
      </cc:Work>
    </rdf:RDF>
  </metadata>
  <defs
     id="defs8373" />
  <sodipodi:namedview
     pagecolor="#ffffff"
     bordercolor="#666666"
     borderopacity="1"
     objecttolerance="10"
     gridtolerance="10"
     guidetolerance="10"
     inkscape:pageopacity="0"
     inkscape:pageshadow="2"
     inkscape:window-width="748"
     inkscape:window-height="480"
     id="namedview8371"
     showgrid="false"
     inkscape:zoom="1.5142192"
     inkscape:cx="43.912203"
     inkscape:cy="77.927953"
     inkscape:window-x="0"
     inkscape:window-y="24"
     inkscape:window-maximized="0"
     inkscape:current-layer="svg8364" />
  <g
     id="Sketch013"
     transform="translate(-44.059341,178.850782) scale(1,-1)">
    <path
       id="Sketch013_w0000"
       d="M 48.6023408833 176.314888919 A 0.5 0.5 0 0 1 49.3094476645 175.607782138 L 63.5952341021 175.607782138 A 0.5 0.5 0 0 1 64.3023408833 176.314888919 L 64.3023408833 178.607782138 L 68.6023408833 178.607782138 L 68.6023408833 135.107782138 L 64.3023408833 135.107782138 L 64.3023408833 137.400675357 A 0.5 0.5 0 1 1 63.5952341021 138.107782138 L 49.3094476645 138.107782138 A 0.5 0.5 0 1 1 48.6023408833 137.400675357 L 48.6023408833 135.107782138 L 44.3023408833 135.107782138 L 44.3023408833 178.607782138 L 48.6023408833 178.607782138 L 48.6023408833 176.314888919 "
       stroke="#000000"
       stroke-width="0.35 px"
       style="stroke-width:0.35;stroke-miterlimit:4;stroke-dasharray:none;fill:none;fill-rule:evenodd;stroke:#006633;stroke-opacity:1" />
    <path
       id="Sketch013_w0001"
       d="M 56.4523408833 172.607782138 A 15.75 9.15 90.0 0 1 56.4523408833 141.107782138 A 15.75 9.15 90.0 0 1 56.4523408833 172.607782138 "
       stroke="#000000"
       stroke-width="0.35 px"
       style="stroke-width:0.35;stroke-miterlimit:4;stroke-dasharray:none;fill:none;fill-rule:evenodd;stroke:#0000ff;stroke-opacity:1" />
    <title
       id="title8369">support_big</title>
  </g>
</svg>
