<?xml version="1.0" encoding="UTF-8" standalone="no"?>
<svg
   xmlns:dc="http://purl.org/dc/elements/1.1/"
   xmlns:cc="http://creativecommons.org/ns#"
   xmlns:rdf="http://www.w3.org/1999/02/22-rdf-syntax-ns#"
   xmlns:svg="http://www.w3.org/2000/svg"
   xmlns="http://www.w3.org/2000/svg"
   xmlns:sodipodi="http://sodipodi.sourceforge.net/DTD/sodipodi-0.dtd"
   xmlns:inkscape="http://www.inkscape.org/namespaces/inkscape"
   width="16.83mm"
   height="41.33mm"
   viewBox="0 0 16.83 41.33"
   version="1.1"
   id="svg4503"
   sodipodi:docname="support_small.svg"
   inkscape:version="0.92.1 r15371">
  <metadata
     id="metadata4509">
    <rdf:RDF>
      <cc:Work
         rdf:about="">
        <dc:format>image/svg+xml</dc:format>
        <dc:type
           rdf:resource="http://purl.org/dc/dcmitype/StillImage" />
      </cc:Work>
    </rdf:RDF>
  </metadata>
  <defs
     id="defs4507" />
  <sodipodi:namedview
     pagecolor="#ffffff"
     bordercolor="#666666"
     borderopacity="1"
     objecttolerance="10"
     gridtolerance="10"
     guidetolerance="10"
     inkscape:pageopacity="0"
     inkscape:pageshadow="2"
     inkscape:window-width="732"
     inkscape:window-height="480"
     id="namedview4505"
     showgrid="false"
     inkscape:zoom="1.5108073"
     inkscape:cx="31.804724"
     inkscape:cy="78.10394"
     inkscape:window-x="0"
     inkscape:window-y="0"
     inkscape:window-maximized="0"
     inkscape:current-layer="Sketch" />
  <g
     id="Sketch"
     transform="translate(-70.704645,175.400892) scale(1,-1)">
    <path
       id="Sketch_w0000"
       d="M 75.369645219 172.942999042 A 0.5 0.5 0 0 1 76.0767520002 172.235892261 L 82.1625384379 172.235892261 A 0.5 0.5 0 1 1 82.869645219 172.942999042 L 82.869645219 175.235892261 L 87.369645219 175.235892261 L 87.369645219 134.235892261 L 82.869645219 134.235892261 L 82.869645219 136.52878548 A 0.5 0.5 0 0 1 82.1625384379 137.235892261 L 76.0767520002 137.235892261 A 0.5 0.5 0 1 1 75.369645219 136.52878548 L 75.369645219 134.235892261 L 70.869645219 134.235892261 L 70.869645219 175.235892261 L 75.369645219 175.235892261 L 75.369645219 172.942999042 "
       stroke="#000000"
       stroke-width="0.35 px"
       style="stroke-width:0.35;stroke-miterlimit:4;stroke-dasharray:none;fill:none;fill-rule:evenodd;stroke:#006633;stroke-opacity:1" />
    <path
       id="Sketch_w0001"
       d="M 79.119645219 169.235892261 A 14.5 5.25 90.0 0 1 79.119645219 140.235892261 A 14.5 5.25 90.0 0 1 79.119645219 169.235892261 "
       stroke="#000000"
       stroke-width="0.35 px"
       style="stroke-width:0.35;stroke-miterlimit:4;stroke-dasharray:none;fill:none;fill-rule:evenodd;stroke:#0000ff;stroke-opacity:1" />
    <title
       id="title4500">support_small</title>
  </g>
</svg>
