<?xml version="1.0" encoding="UTF-8" standalone="no"?>
<svg
   xmlns:dc="http://purl.org/dc/elements/1.1/"
   xmlns:cc="http://creativecommons.org/ns#"
   xmlns:rdf="http://www.w3.org/1999/02/22-rdf-syntax-ns#"
   xmlns:svg="http://www.w3.org/2000/svg"
   xmlns="http://www.w3.org/2000/svg"
   xmlns:sodipodi="http://sodipodi.sourceforge.net/DTD/sodipodi-0.dtd"
   xmlns:inkscape="http://www.inkscape.org/namespaces/inkscape"
   width="24.99mm"
   height="41.49mm"
   viewBox="0 0 24.99 41.49"
   version="1.1"
   id="svg4490"
   sodipodi:docname="support_big.svg"
   inkscape:version="0.92.1 r15371">
  <metadata
     id="metadata4496">
    <rdf:RDF>
      <cc:Work
         rdf:about="">
        <dc:format>image/svg+xml</dc:format>
        <dc:type
           rdf:resource="http://purl.org/dc/dcmitype/StillImage" />
      </cc:Work>
    </rdf:RDF>
  </metadata>
  <defs
     id="defs4494" />
  <sodipodi:namedview
     pagecolor="#ffffff"
     bordercolor="#666666"
     borderopacity="1"
     objecttolerance="10"
     gridtolerance="10"
     guidetolerance="10"
     inkscape:pageopacity="0"
     inkscape:pageshadow="2"
     inkscape:window-width="732"
     inkscape:window-height="480"
     id="namedview4492"
     showgrid="false"
     inkscape:zoom="1.5949061"
     inkscape:cx="47.225196"
     inkscape:cy="78.406302"
     inkscape:window-x="0"
     inkscape:window-y="0"
     inkscape:window-maximized="1"
     inkscape:current-layer="Sketch013" />
  <g
     id="Sketch013"
     transform="translate(-43.867293,175.956992) scale(1,-1)">
    <path
       id="Sketch013_w0000"
       d="M 48.6122933884 173.419098495 A 0.5 0.5 0 1 1 49.3194001696 172.711991714 L 63.4051866072 172.711991714 A 0.5 0.5 0 1 1 64.1122933884 173.419098495 L 64.1122933884 175.711991714 L 68.6122933884 175.711991714 L 68.6122933884 134.711991714 L 64.1122933884 134.711991714 L 64.1122933884 137.004884932 A 0.5 0.5 0 0 1 63.4051866072 137.711991714 L 49.3194001696 137.711991714 A 0.5 0.5 0 1 1 48.6122933884 137.004884932 L 48.6122933884 134.711991714 L 44.1122933884 134.711991714 L 44.1122933884 175.711991714 L 48.6122933884 175.711991714 L 48.6122933884 173.419098495 "
       stroke="#000000"
       stroke-width="0.35 px"
       style="stroke-width:0.35;stroke-miterlimit:4;stroke-dasharray:none;fill:none;fill-rule:evenodd;stroke:#006633;stroke-opacity:1" />
    <path
       id="Sketch013_w0001"
       d="M 56.3622933884 169.711991714 A 14.5 9.25 90.0 0 1 56.3622933884 140.711991714 A 14.5 9.25 90.0 0 1 56.3622933884 169.711991714 "
       stroke="#000000"
       stroke-width="0.35 px"
       style="stroke-width:0.35;stroke-miterlimit:4;stroke-dasharray:none;fill:none;fill-rule:evenodd;stroke:#0000ff;stroke-opacity:1" />
    <title
       id="title4487">support_big</title>
  </g>
</svg>
