<?xml version="1.0" encoding="UTF-8" standalone="no"?>
<svg
   xmlns:dc="http://purl.org/dc/elements/1.1/"
   xmlns:cc="http://creativecommons.org/ns#"
   xmlns:rdf="http://www.w3.org/1999/02/22-rdf-syntax-ns#"
   xmlns:svg="http://www.w3.org/2000/svg"
   xmlns="http://www.w3.org/2000/svg"
   xmlns:sodipodi="http://sodipodi.sourceforge.net/DTD/sodipodi-0.dtd"
   xmlns:inkscape="http://www.inkscape.org/namespaces/inkscape"
   width="16.626mm"
   height="43.826mm"
   viewBox="0 0 16.626 43.826"
   version="1.1"
   id="svg2"
   inkscape:version="0.91 r13725"
   sodipodi:docname="support_small.svg">
  <metadata
     id="metadata13">
    <rdf:RDF>
      <cc:Work
         rdf:about="">
        <dc:format>image/svg+xml</dc:format>
        <dc:type
           rdf:resource="http://purl.org/dc/dcmitype/StillImage" />
      </cc:Work>
    </rdf:RDF>
  </metadata>
  <defs
     id="defs11" />
  <sodipodi:namedview
     pagecolor="#ffffff"
     bordercolor="#666666"
     borderopacity="1"
     objecttolerance="10"
     gridtolerance="10"
     guidetolerance="10"
     inkscape:pageopacity="0"
     inkscape:pageshadow="2"
     inkscape:window-width="748"
     inkscape:window-height="480"
     id="namedview9"
     showgrid="false"
     inkscape:zoom="1.5197473"
     inkscape:cx="29.455511"
     inkscape:cy="77.644489"
     inkscape:window-x="10"
     inkscape:window-y="34"
     inkscape:window-maximized="0"
     inkscape:current-layer="Sketch" />
  <g
     id="Sketch"
     transform="translate(-70.779520,175.936737) scale(1,-1)">
    <path
       id="Sketch_w0000"
       d="M 75.2425203518 173.48084385 A 0.5 0.5 0 1 1 75.949627133 172.773737069 L 82.2354135706 172.773737069 A 0.5 0.5 0 0 1 82.9425203518 173.48084385 L 82.9425203518 175.773737069 L 87.2425203518 175.773737069 L 87.2425203518 132.273737069 L 82.9425203518 132.273737069 L 82.9425203518 134.566630287 A 0.5 0.5 0 1 1 82.2354135706 135.273737069 L 75.949627133 135.273737069 A 0.5 0.5 0 1 1 75.2425203518 134.566630287 L 75.2425203518 132.273737069 L 70.9425203518 132.273737069 L 70.9425203518 175.773737069 L 75.2425203518 175.773737069 L 75.2425203518 173.48084385 "
       stroke="#000000"
       stroke-width="0.35 px"
       style="stroke-width:0.35;stroke-miterlimit:4;stroke-dasharray:none;fill:none;fill-rule:evenodd;stroke:#006633;stroke-opacity:1" />
    <path
       id="Sketch_w0001"
       d="M 79.0925203518 169.773737069 A 15.75 5.15 90.0 0 1 79.0925203518 138.273737069 A 15.75 5.15 90.0 0 1 79.0925203518 169.773737069 "
       stroke="#000000"
       stroke-width="0.35 px"
       style="stroke-width:0.35;stroke-miterlimit:4;stroke-dasharray:none;fill:none;fill-rule:evenodd;stroke:#0000ff;stroke-opacity:1" />
    <title
       id="title7">support_small</title>
  </g>
</svg>
