<?xml version="1.0" encoding="UTF-8" standalone="no"?>
<svg
   xmlns:dc="http://purl.org/dc/elements/1.1/"
   xmlns:cc="http://creativecommons.org/ns#"
   xmlns:rdf="http://www.w3.org/1999/02/22-rdf-syntax-ns#"
   xmlns:svg="http://www.w3.org/2000/svg"
   xmlns="http://www.w3.org/2000/svg"
   xmlns:sodipodi="http://sodipodi.sourceforge.net/DTD/sodipodi-0.dtd"
   xmlns:inkscape="http://www.inkscape.org/namespaces/inkscape"
   width="16.626mm"
   height="46.326mm"
   viewBox="0 0 16.626 46.326"
   version="1.1"
   id="svg2"
   inkscape:version="0.91 r13725"
   sodipodi:docname="support_small.svg">
  <metadata
     id="metadata13">
    <rdf:RDF>
      <cc:Work
         rdf:about="">
        <dc:format>image/svg+xml</dc:format>
        <dc:type
           rdf:resource="http://purl.org/dc/dcmitype/StillImage" />
      </cc:Work>
    </rdf:RDF>
  </metadata>
  <defs
     id="defs11" />
  <sodipodi:namedview
     pagecolor="#ffffff"
     bordercolor="#666666"
     borderopacity="1"
     objecttolerance="10"
     gridtolerance="10"
     guidetolerance="10"
     inkscape:pageopacity="0"
     inkscape:pageshadow="2"
     inkscape:window-width="748"
     inkscape:window-height="480"
     id="namedview9"
     showgrid="false"
     inkscape:zoom="1.4377335"
     inkscape:cx="29.455511"
     inkscape:cy="82.073622"
     inkscape:window-x="10"
     inkscape:window-y="34"
     inkscape:window-maximized="0"
     inkscape:current-layer="Sketch" />
  <g
     id="Sketch"
     transform="translate(-70.779535,175.875041) scale(1,-1)">
    <path
       id="Sketch_w0000"
       d="M 75.2425345939 173.419147848 A 0.5 0.5 0 1 1 75.9496413751 172.712041067 L 82.2354278127 172.712041067 A 0.5 0.5 0 1 1 82.9425345939 173.419147848 L 82.9425345939 175.712041067 L 87.2425345939 175.712041067 L 87.2425345939 129.712041067 L 82.9425345939 129.712041067 L 82.9425345939 132.004934285 A 0.5 0.5 0 1 1 82.2354278127 132.712041067 L 75.9496413751 132.712041067 A 0.5 0.5 0 1 1 75.2425345939 132.004934285 L 75.2425345939 129.712041067 L 70.9425345939 129.712041067 L 70.9425345939 175.712041067 L 75.2425345939 175.712041067 L 75.2425345939 173.419147848 "
       stroke="#000000"
       stroke-width="0.35 px"
       style="stroke-width:0.35;stroke-miterlimit:4;stroke-dasharray:none;fill:none;fill-rule:evenodd;stroke:#006633;stroke-opacity:1" />
    <path
       id="Sketch_w0001"
       d="M 79.0925345939 169.712041067 A 17.0 5.15 90.0 0 1 79.0925345939 135.712041067 A 17.0 5.15 90.0 0 1 79.0925345939 169.712041067 "
       stroke="#000000"
       stroke-width="0.35 px"
       style="stroke-width:0.35;stroke-miterlimit:4;stroke-dasharray:none;fill:none;fill-rule:evenodd;stroke:#0000ff;stroke-opacity:1" />
    <title
       id="title7">support_small</title>
  </g>
</svg>
