<?xml version="1.0" encoding="UTF-8" standalone="no"?>
<svg
   xmlns:dc="http://purl.org/dc/elements/1.1/"
   xmlns:cc="http://creativecommons.org/ns#"
   xmlns:rdf="http://www.w3.org/1999/02/22-rdf-syntax-ns#"
   xmlns:svg="http://www.w3.org/2000/svg"
   xmlns="http://www.w3.org/2000/svg"
   xmlns:sodipodi="http://sodipodi.sourceforge.net/DTD/sodipodi-0.dtd"
   xmlns:inkscape="http://www.inkscape.org/namespaces/inkscape"
   width="16.626mm"
   height="43.326mm"
   viewBox="0 0 16.626 43.326"
   version="1.1"
   id="svg2"
   inkscape:version="0.91 r13725"
   sodipodi:docname="support_small.svg">
  <metadata
     id="metadata13">
    <rdf:RDF>
      <cc:Work
         rdf:about="">
        <dc:format>image/svg+xml</dc:format>
        <dc:type
           rdf:resource="http://purl.org/dc/dcmitype/StillImage" />
      </cc:Work>
    </rdf:RDF>
  </metadata>
  <defs
     id="defs11" />
  <sodipodi:namedview
     pagecolor="#ffffff"
     bordercolor="#666666"
     borderopacity="1"
     objecttolerance="10"
     gridtolerance="10"
     guidetolerance="10"
     inkscape:pageopacity="0"
     inkscape:pageshadow="2"
     inkscape:window-width="748"
     inkscape:window-height="480"
     id="namedview9"
     showgrid="false"
     inkscape:zoom="1.5372858"
     inkscape:cx="29.455511"
     inkscape:cy="76.758662"
     inkscape:window-x="10"
     inkscape:window-y="34"
     inkscape:window-maximized="0"
     inkscape:current-layer="Sketch" />
  <g
     id="Sketch"
     transform="translate(-69.499943,178.133772) scale(1,-1)">
    <path
       id="Sketch_w0000"
       d="M 73.962943 175.677878599 A 0.5 0.5 0 1 1 74.6700497812 174.970771817 L 80.9558362188 174.970771817 A 0.5 0.5 0 1 1 81.662943 175.677878599 L 81.662943 177.970771817 L 85.962943 177.970771817 L 85.962943 134.970771817 L 81.662943 134.970771817 L 81.662943 137.263665036 A 0.5 0.5 0 1 1 80.9558362188 137.970771817 L 74.6700497812 137.970771817 A 0.5 0.5 0 1 1 73.962943 137.263665036 L 73.962943 134.970771817 L 69.662943 134.970771817 L 69.662943 177.970771817 L 73.962943 177.970771817 L 73.962943 175.677878599 "
       stroke="#000000"
       stroke-width="0.35 px"
       style="stroke-width:0.35;stroke-miterlimit:4;stroke-dasharray:none;fill:none;fill-rule:evenodd;stroke:#006633;stroke-opacity:1" />
    <path
       id="Sketch_w0001"
       d="M 77.812943 171.970771817 A 15.5 5.15 -90.0 0 1 77.812943 140.970771817 A 15.5 5.15 -90.0 0 1 77.812943 171.970771817 "
       stroke="#000000"
       stroke-width="0.35 px"
       style="stroke-width:0.35;stroke-miterlimit:4;stroke-dasharray:none;fill:none;fill-rule:evenodd;stroke:#0000ff;stroke-opacity:1" />
    <title
       id="title7">support_small</title>
  </g>
</svg>
