<?xml version="1.0"?>
<!DOCTYPE svg PUBLIC "-//W3C//DTD SVG 1.1//EN" "http://www.w3.org/Graphics/SVG/1.1/DTD/svg11.dtd">
<svg width="16.32mm" height="41.32mm" viewBox="0 0 16.32 41.32" xmlns="http://www.w3.org/2000/svg" version="1.1">
<g id="Sketch" transform="translate(-73.567785,175.456754) scale(1,-1)">
<path id="Sketch_w0000"  d="M 77.7277847506 173.003861212 A 0.5 0.5 0 0 1 78.4348915318 172.296754431 L 85.0206779694 172.296754431 A 0.5 0.5 0 1 1 85.7277847506 173.003861212 L 85.7277847506 175.296754431 L 89.7277847506 175.296754431 L 89.7277847506 134.296754431 L 85.7277847506 134.296754431 L 85.7277847506 136.58964765 A 0.5 0.5 0 0 1 85.0206779694 137.296754431 L 78.4348915318 137.296754431 A 0.5 0.5 0 1 1 77.7277847506 136.58964765 L 77.7277847506 134.296754431 L 73.7277847506 134.296754431 L 73.7277847506 175.296754431 L 77.7277847506 175.296754431 L 77.7277847506 173.003861212 " stroke="#000000" stroke-width="0.35 px" style="stroke-width:0.35;stroke-miterlimit:4;stroke-dasharray:none;fill:none;fill-rule: evenodd "/>
<path id="Sketch_w0001"  d="M 81.7277847506 169.296754431 A 14.5 5.0 -90.0 0 1 81.7277847506 140.296754431 A 14.5 5.0 -90.0 0 1 81.7277847506 169.296754431 " stroke="#000000" stroke-width="0.35 px" style="stroke-width:0.35;stroke-miterlimit:4;stroke-dasharray:none;fill:none;fill-rule: evenodd "/>
<title>support_small</title>
</g>
</svg>