<?xml version="1.0" encoding="UTF-8" standalone="no"?>
<svg
   xmlns:dc="http://purl.org/dc/elements/1.1/"
   xmlns:cc="http://creativecommons.org/ns#"
   xmlns:rdf="http://www.w3.org/1999/02/22-rdf-syntax-ns#"
   xmlns:svg="http://www.w3.org/2000/svg"
   xmlns="http://www.w3.org/2000/svg"
   xmlns:sodipodi="http://sodipodi.sourceforge.net/DTD/sodipodi-0.dtd"
   xmlns:inkscape="http://www.inkscape.org/namespaces/inkscape"
   width="16.32mm"
   height="41.32mm"
   viewBox="0 0 16.32 41.32"
   version="1.1"
   id="svg6269"
   sodipodi:docname="support_small.svg"
   inkscape:version="0.92.1 r15371">
  <metadata
     id="metadata6275">
    <rdf:RDF>
      <cc:Work
         rdf:about="">
        <dc:format>image/svg+xml</dc:format>
        <dc:type
           rdf:resource="http://purl.org/dc/dcmitype/StillImage" />
      </cc:Work>
    </rdf:RDF>
  </metadata>
  <defs
     id="defs6273" />
  <sodipodi:namedview
     pagecolor="#ffffff"
     bordercolor="#666666"
     borderopacity="1"
     objecttolerance="10"
     gridtolerance="10"
     guidetolerance="10"
     inkscape:pageopacity="0"
     inkscape:pageshadow="2"
     inkscape:window-width="732"
     inkscape:window-height="480"
     id="namedview6271"
     showgrid="false"
     inkscape:zoom="1.511173"
     inkscape:cx="30.840944"
     inkscape:cy="78.085039"
     inkscape:window-x="0"
     inkscape:window-y="0"
     inkscape:window-maximized="0"
     inkscape:current-layer="Sketch" />
  <g
     id="Sketch"
     transform="translate(-73.567785,175.456754) scale(1,-1)">
    <path
       id="Sketch_w0000"
       d="M 77.7277847506 173.003861212 A 0.5 0.5 0 0 1 78.4348915318 172.296754431 L 85.0206779694 172.296754431 A 0.5 0.5 0 1 1 85.7277847506 173.003861212 L 85.7277847506 175.296754431 L 89.7277847506 175.296754431 L 89.7277847506 134.296754431 L 85.7277847506 134.296754431 L 85.7277847506 136.58964765 A 0.5 0.5 0 0 1 85.0206779694 137.296754431 L 78.4348915318 137.296754431 A 0.5 0.5 0 1 1 77.7277847506 136.58964765 L 77.7277847506 134.296754431 L 73.7277847506 134.296754431 L 73.7277847506 175.296754431 L 77.7277847506 175.296754431 L 77.7277847506 173.003861212 "
       stroke="#000000"
       stroke-width="0.35 px"
       style="stroke-width:0.35;stroke-miterlimit:4;stroke-dasharray:none;fill:none;fill-rule:evenodd;stroke:#006633;stroke-opacity:1" />
    <path
       id="Sketch_w0001"
       d="M 81.7277847506 169.296754431 A 14.5 5.0 -90.0 0 1 81.7277847506 140.296754431 A 14.5 5.0 -90.0 0 1 81.7277847506 169.296754431 "
       stroke="#000000"
       stroke-width="0.35 px"
       style="stroke-width:0.35;stroke-miterlimit:4;stroke-dasharray:none;fill:none;fill-rule:evenodd;stroke:#0000ff;stroke-opacity:1" />
    <title
       id="title6266">support_small</title>
  </g>
</svg>
