<?xml version="1.0" encoding="UTF-8" standalone="no"?>
<svg
   xmlns:dc="http://purl.org/dc/elements/1.1/"
   xmlns:cc="http://creativecommons.org/ns#"
   xmlns:rdf="http://www.w3.org/1999/02/22-rdf-syntax-ns#"
   xmlns:svg="http://www.w3.org/2000/svg"
   xmlns="http://www.w3.org/2000/svg"
   xmlns:sodipodi="http://sodipodi.sourceforge.net/DTD/sodipodi-0.dtd"
   xmlns:inkscape="http://www.inkscape.org/namespaces/inkscape"
   width="24.786mm"
   height="46.486mm"
   viewBox="0 0 24.786 46.486"
   version="1.1"
   id="svg2"
   inkscape:version="0.91 r13725"
   sodipodi:docname="support_big.svg">
  <metadata
     id="metadata13">
    <rdf:RDF>
      <cc:Work
         rdf:about="">
        <dc:format>image/svg+xml</dc:format>
        <dc:type
           rdf:resource="http://purl.org/dc/dcmitype/StillImage" />
      </cc:Work>
    </rdf:RDF>
  </metadata>
  <defs
     id="defs11" />
  <sodipodi:namedview
     pagecolor="#ffffff"
     bordercolor="#666666"
     borderopacity="1"
     objecttolerance="10"
     gridtolerance="10"
     guidetolerance="10"
     inkscape:pageopacity="0"
     inkscape:pageshadow="2"
     inkscape:window-width="748"
     inkscape:window-height="480"
     id="namedview9"
     showgrid="false"
     inkscape:zoom="1.432785"
     inkscape:cx="-39.142825"
     inkscape:cy="82.357087"
     inkscape:window-x="10"
     inkscape:window-y="34"
     inkscape:window-maximized="0"
     inkscape:current-layer="Sketch013" />
  <g
     id="Sketch013"
     transform="translate(-44.059341,181.608669) scale(1,-1)">
    <path
       id="Sketch013_w0000"
       d="M 48.6023408833 179.07277533 A 0.5 0.5 0 1 1 49.3094476645 178.365668549 L 63.5952341021 178.365668549 A 0.5 0.5 0 1 1 64.3023408833 179.07277533 L 64.3023408833 181.365668549 L 68.6023408833 181.365668549 L 68.6023408833 135.365668549 L 64.3023408833 135.365668549 L 64.3023408833 137.658561767 A 0.5 0.5 0 0 1 63.5952341021 138.365668549 L 49.3094476645 138.365668549 A 0.5 0.5 0 0 1 48.6023408833 137.658561767 L 48.6023408833 135.365668549 L 44.3023408833 135.365668549 L 44.3023408833 181.365668549 L 48.6023408833 181.365668549 L 48.6023408833 179.07277533 "
       stroke="#000000"
       stroke-width="0.35 px"
       style="stroke-width:0.35;stroke-miterlimit:4;stroke-dasharray:none;fill:none;fill-rule:evenodd;stroke:#006633;stroke-opacity:1" />
    <path
       id="Sketch013_w0001"
       d="M 56.4523408833 175.365668549 A 17.0 9.15 -90.0 0 1 56.4523408833 141.365668549 A 17.0 9.15 -90.0 0 1 56.4523408833 175.365668549 "
       stroke="#000000"
       stroke-width="0.35 px"
       style="stroke-width:0.35;stroke-miterlimit:4;stroke-dasharray:none;fill:none;fill-rule:evenodd;stroke:#0000ff;stroke-opacity:1" />
    <title
       id="title7">support_big</title>
  </g>
</svg>
