<?xml version="1.0" encoding="UTF-8" standalone="no"?>
<svg
   xmlns:dc="http://purl.org/dc/elements/1.1/"
   xmlns:cc="http://creativecommons.org/ns#"
   xmlns:rdf="http://www.w3.org/1999/02/22-rdf-syntax-ns#"
   xmlns:svg="http://www.w3.org/2000/svg"
   xmlns="http://www.w3.org/2000/svg"
   xmlns:sodipodi="http://sodipodi.sourceforge.net/DTD/sodipodi-0.dtd"
   xmlns:inkscape="http://www.inkscape.org/namespaces/inkscape"
   width="24.48mm"
   height="41.48mm"
   viewBox="0 0 24.48 41.48"
   version="1.1"
   id="svg5713"
   sodipodi:docname="support_big.svg"
   inkscape:version="0.92.1 r15371">
  <metadata
     id="metadata5719">
    <rdf:RDF>
      <cc:Work
         rdf:about="">
        <dc:format>image/svg+xml</dc:format>
        <dc:type
           rdf:resource="http://purl.org/dc/dcmitype/StillImage" />
      </cc:Work>
    </rdf:RDF>
  </metadata>
  <defs
     id="defs5717" />
  <sodipodi:namedview
     pagecolor="#ffffff"
     bordercolor="#666666"
     borderopacity="1"
     objecttolerance="10"
     gridtolerance="10"
     guidetolerance="10"
     inkscape:pageopacity="0"
     inkscape:pageshadow="2"
     inkscape:window-width="732"
     inkscape:window-height="480"
     id="namedview5715"
     showgrid="false"
     inkscape:zoom="1.505344"
     inkscape:cx="46.261416"
     inkscape:cy="78.387401"
     inkscape:window-x="0"
     inkscape:window-y="0"
     inkscape:window-maximized="0"
     inkscape:current-layer="Sketch013" />
  <g
     id="Sketch013"
     transform="translate(-44.160956,175.987493) scale(1,-1)">
    <path
       id="Sketch013_w0000"
       d="M 48.4009562791 173.45459946 A 0.5 0.5 0 1 1 49.1080630602 172.747492679 L 63.6938494979 172.747492679 A 0.5 0.5 0 1 1 64.4009562791 173.45459946 L 64.4009562791 175.747492679 L 68.4009562791 175.747492679 L 68.4009562791 134.747492679 L 64.4009562791 134.747492679 L 64.4009562791 137.040385898 A 0.5 0.5 0 1 1 63.6938494979 137.747492679 L 49.1080630602 137.747492679 A 0.5 0.5 0 1 1 48.4009562791 137.040385898 L 48.4009562791 134.747492679 L 44.4009562791 134.747492679 L 44.4009562791 175.747492679 L 48.4009562791 175.747492679 L 48.4009562791 173.45459946 "
       stroke="#000000"
       stroke-width="0.35 px"
       style="stroke-width:0.35;stroke-miterlimit:4;stroke-dasharray:none;fill:none;fill-rule:evenodd;stroke:#006633;stroke-opacity:1" />
    <path
       id="Sketch013_w0001"
       d="M 56.4009562791 169.747492679 A 14.5 9.0 -90.0 0 1 56.4009562791 140.747492679 A 14.5 9.0 -90.0 0 1 56.4009562791 169.747492679 "
       stroke="#000000"
       stroke-width="0.35 px"
       style="stroke-width:0.35;stroke-miterlimit:4;stroke-dasharray:none;fill:none;fill-rule:evenodd;stroke:#0000ff;stroke-opacity:1" />
    <title
       id="title5710">support_big</title>
  </g>
</svg>
