<?xml version="1.0"?>
<!DOCTYPE svg PUBLIC "-//W3C//DTD SVG 1.1//EN" "http://www.w3.org/Graphics/SVG/1.1/DTD/svg11.dtd">
<svg width="24.48mm" height="41.48mm" viewBox="0 0 24.48 41.48" xmlns="http://www.w3.org/2000/svg" version="1.1">
<g id="Sketch013" transform="translate(-44.160956,175.987493) scale(1,-1)">
<path id="Sketch013_w0000"  d="M 48.4009562791 173.45459946 A 0.5 0.5 0 1 1 49.1080630602 172.747492679 L 63.6938494979 172.747492679 A 0.5 0.5 0 1 1 64.4009562791 173.45459946 L 64.4009562791 175.747492679 L 68.4009562791 175.747492679 L 68.4009562791 134.747492679 L 64.4009562791 134.747492679 L 64.4009562791 137.040385898 A 0.5 0.5 0 1 1 63.6938494979 137.747492679 L 49.1080630602 137.747492679 A 0.5 0.5 0 1 1 48.4009562791 137.040385898 L 48.4009562791 134.747492679 L 44.4009562791 134.747492679 L 44.4009562791 175.747492679 L 48.4009562791 175.747492679 L 48.4009562791 173.45459946 " stroke="#000000" stroke-width="0.35 px" style="stroke-width:0.35;stroke-miterlimit:4;stroke-dasharray:none;fill:none;fill-rule: evenodd "/>
<path id="Sketch013_w0001"  d="M 56.4009562791 169.747492679 A 14.5 9.0 -90.0 0 1 56.4009562791 140.747492679 A 14.5 9.0 -90.0 0 1 56.4009562791 169.747492679 " stroke="#000000" stroke-width="0.35 px" style="stroke-width:0.35;stroke-miterlimit:4;stroke-dasharray:none;fill:none;fill-rule: evenodd "/>
<title>support_big</title>
</g>
</svg>