<?xml version="1.0"?>
<!DOCTYPE svg PUBLIC "-//W3C//DTD SVG 1.1//EN" "http://www.w3.org/Graphics/SVG/1.1/DTD/svg11.dtd">
<svg width="54.978mm" height="29.478mm" viewBox="0 0 54.978 29.478" xmlns="http://www.w3.org/2000/svg" version="1.1">
<g id="Sketch002" transform="translate(-4.274320,92.228854) scale(1,-1)">
<path id="Sketch002_w0000"  d="M 4.81331971214 91.6898539452 L 58.7133197121 91.6898539452 L 58.7133197121 63.2898539452 L 4.81331971214 63.2898539452 L 4.81331971214 91.6898539452 " stroke="#000000" stroke-width="0.35 px" style="stroke-width:0.35;stroke-miterlimit:4;stroke-dasharray:none;fill:none;fill-rule: evenodd "/>
<circle cx="54.2633197121" cy="77.4898539452" r="1.2" stroke="#000000" stroke-width="0.35 px" style="stroke-width:0.35;stroke-miterlimit:4;stroke-dasharray:none;fill:none"/>
<circle cx="9.26331971214" cy="77.4898539452" r="1.2" stroke="#000000" stroke-width="0.35 px" style="stroke-width:0.35;stroke-miterlimit:4;stroke-dasharray:none;fill:none"/>
<path id="Sketch002_w0003"  d="M 25.5078823587 72.9898539452 L 38.0187570656 72.9898539452 A 5.8 5.8 0 0 0 40.9633197121 77.2692239849 L 40.9633197121 78.1898539452 A 2.8 2.8 0 1 0 46.5633197121 78.1898539452 L 46.5633197121 77.2692239849 A 5.8 5.8 0 1 0 38.2180514589 70.4898539452 L 25.3085879653 70.4898539452 A 5.8 5.8 0 1 0 16.9633197121 77.2692239849 L 16.9633197121 78.1898539452 A 2.8 2.8 0 0 0 22.5633197121 78.1898539452 L 22.5633197121 77.2692239849 A 5.8 5.8 0 0 0 25.5078823587 72.9898539452 " stroke="#000000" stroke-width="0.35 px" style="stroke-width:0.35;stroke-miterlimit:4;stroke-dasharray:none;fill:none;fill-rule: evenodd "/>
<title>coxa_front</title>
</g>
</svg>