<?xml version="1.0" encoding="UTF-8" standalone="no"?>
<svg
   xmlns:dc="http://purl.org/dc/elements/1.1/"
   xmlns:cc="http://creativecommons.org/ns#"
   xmlns:rdf="http://www.w3.org/1999/02/22-rdf-syntax-ns#"
   xmlns:svg="http://www.w3.org/2000/svg"
   xmlns="http://www.w3.org/2000/svg"
   xmlns:sodipodi="http://sodipodi.sourceforge.net/DTD/sodipodi-0.dtd"
   xmlns:inkscape="http://www.inkscape.org/namespaces/inkscape"
   width="46.9200005136mm"
   height="33.4200000101mm"
   viewBox="0 0 46.9200005136 33.4200000101"
   version="1.1"
   id="svg6835"
   sodipodi:docname="coxa_back.svg"
   inkscape:version="0.92.1 r15371">
  <metadata
     id="metadata6841">
    <rdf:RDF>
      <cc:Work
         rdf:about="">
        <dc:format>image/svg+xml</dc:format>
        <dc:type
           rdf:resource="http://purl.org/dc/dcmitype/StillImage" />
      </cc:Work>
    </rdf:RDF>
  </metadata>
  <defs
     id="defs6839" />
  <sodipodi:namedview
     pagecolor="#ffffff"
     bordercolor="#666666"
     borderopacity="1"
     objecttolerance="10"
     gridtolerance="10"
     guidetolerance="10"
     inkscape:pageopacity="0"
     inkscape:pageshadow="2"
     inkscape:window-width="1138"
     inkscape:window-height="1008"
     id="namedview6837"
     showgrid="false"
     inkscape:zoom="4.1413394"
     inkscape:cx="88.66772"
     inkscape:cy="63.155902"
     inkscape:window-x="-7"
     inkscape:window-y="0"
     inkscape:window-maximized="0"
     inkscape:current-layer="Sketch003" />
  <g
     id="Sketch003"
     transform="translate(-64.946759,122.319931) scale(1,-1)">
    <path
       id="Sketch003_w0000"
       d="M 67.4067591916 121.859930831 L 109.406759581 121.859930831 A 2.0 2.0 0 0 0 111.406759386 119.859930831 L 111.406759386 91.3599308306 A 2.0 2.0 0 0 0 109.406758909 89.3599308306 L 99.4067593861 89.3599308306 A 3.41421356237 3.41421356237 0 0 0 96.9925458237 90.3599308306 A 3.41421356237 3.41421356237 0 0 1 94.5783327884 91.3599308306 L 82.2351768312 91.3599308306 A 3.41421356237 3.41421356237 0 0 1 79.8209729485 90.3599308306 A 3.41421356238 3.41421356238 0 0 0 77.4067593861 89.3599308306 L 67.4067583182 89.3599308306 A 2.0 2.0 0 0 0 65.4067588826 91.3599308306 L 65.4067588826 119.859930831 A 2.0 2.0 0 0 0 67.4067591916 121.859930831 "
       stroke="#000000"
       stroke-width="0.35 px"
       style="stroke-width:0.35;stroke-miterlimit:4;stroke-dasharray:none;fill:none;fill-rule:evenodd;stroke:#006633;stroke-opacity:1" />
    <circle
       cx="107.906759386"
       cy="105.659930831"
       r="1.45"
       stroke="#000000"
       stroke-width="0.35 px"
       style="stroke-width:0.35;stroke-miterlimit:4;stroke-dasharray:none;fill:none;stroke:#0000ff;stroke-opacity:1"
       id="circle6821" />
    <circle
       cx="68.9067593861"
       cy="105.659930831"
       r="1.45"
       stroke="#000000"
       stroke-width="0.35 px"
       style="stroke-width:0.35;stroke-miterlimit:4;stroke-dasharray:none;fill:none;stroke:#0000ff;stroke-opacity:1"
       id="circle6823" />
    <path
       id="Sketch003_w0003"
       d="M 102.406759386 108.959930831 A 14.0 4.9 -0.0 0 1 74.4067593861 108.959930831 A 14.0 4.9 -0.0 0 1 102.406759386 108.959930831 "
       stroke="#000000"
       stroke-width="0.35 px"
       style="stroke-width:0.35;stroke-miterlimit:4;stroke-dasharray:none;fill:none;fill-rule:evenodd;stroke:#0000ff;stroke-opacity:1" />
    <path
       id="Sketch003_w0004"
       d="M 108.406759386 93.6528240494 A 0.5 0.5 0 1 1 107.699652605 94.3599308306 L 101.113866167 94.3599308306 A 0.5 0.5 0 0 1 100.406759386 93.6528240494 L 100.406759386 92.0670376118 A 0.5 0.5 0 1 1 101.113866167 91.3599308306 L 107.699652605 91.3599308306 A 0.5 0.5 0 1 1 108.406759386 92.0670376118 L 108.406759386 93.6528240494 "
       stroke="#000000"
       stroke-width="0.35 px"
       style="stroke-width:0.35;stroke-miterlimit:4;stroke-dasharray:none;fill:none;fill-rule:evenodd;stroke:#0000ff;stroke-opacity:1" />
    <path
       id="Sketch003_w0005"
       d="M 76.4067593861 93.6528240494 A 0.5 0.5 0 1 1 75.6996526049 94.3599308306 L 69.1138656638 94.3599308306 A 0.5 0.5 0 0 1 68.4067588826 93.6528240494 L 68.4067588826 92.0670376118 A 0.5 0.5 0 1 1 69.1138656638 91.3599308306 L 75.6996526049 91.3599308306 A 0.5 0.5 0 0 1 76.4067593861 92.0670376118 L 76.4067593861 93.6528240494 "
       stroke="#000000"
       stroke-width="0.35 px"
       style="stroke-width:0.35;stroke-miterlimit:4;stroke-dasharray:none;fill:none;fill-rule:evenodd;stroke:#0000ff;stroke-opacity:1" />
    <path
       id="Sketch003_w0006"
       d="M 94.3067593861 100.352824049 A 0.5 0.5 0 1 1 93.5996526049 101.059930831 L 83.2138661673 101.059930831 A 0.5 0.5 0 1 1 82.5067593861 100.352824049 L 82.5067593861 99.2670376118 A 0.5 0.5 0 1 1 83.2138661673 98.5599308306 L 93.5996526049 98.5599308306 A 0.5 0.5 0 1 1 94.3067593861 99.2670376118 L 94.3067593861 100.352824049 "
       stroke="#000000"
       stroke-width="0.35 px"
       style="stroke-width:0.35;stroke-miterlimit:4;stroke-dasharray:none;fill:none;fill-rule:evenodd;stroke:#0000ff;stroke-opacity:1" />
    <path
       id="Sketch003_w0007"
       d="M 76.4067593861 119.152824049 A 0.5 0.5 0 1 1 75.6996526049 119.859930831 L 69.1138661673 119.859930831 A 0.5 0.5 0 0 1 68.4067593861 119.152824049 L 68.4067593861 117.567037612 A 0.5 0.5 0 0 1 69.1138661673 116.859930831 L 75.6996526049 116.859930831 A 0.5 0.5 0 1 1 76.4067593861 117.567037612 L 76.4067593861 119.152824049 "
       stroke="#000000"
       stroke-width="0.35 px"
       style="stroke-width:0.35;stroke-miterlimit:4;stroke-dasharray:none;fill:none;fill-rule:evenodd;stroke:#0000ff;stroke-opacity:1" />
    <path
       id="Sketch003_w0008"
       d="M 108.406759386 119.152824049 A 0.5 0.5 0 1 1 107.699652605 119.859930831 L 101.113866167 119.859930831 A 0.5 0.5 0 1 1 100.406759386 119.152824049 L 100.406759386 117.567037612 A 0.5 0.5 0 1 1 101.113866167 116.859930831 L 107.699652605 116.859930831 A 0.5 0.5 0 1 1 108.406759386 117.567037612 L 108.406759386 119.152824049 "
       stroke="#000000"
       stroke-width="0.35 px"
       style="stroke-width:0.35;stroke-miterlimit:4;stroke-dasharray:none;fill:none;fill-rule:evenodd;stroke:#0000ff;stroke-opacity:1" />
    <path
       id="Sketch003_w0009"
       d="M 92.4067593861 119.152824049 A 0.5 0.5 0 1 1 91.6996526049 119.859930831 L 85.1138661673 119.859930831 A 0.5 0.5 0 1 1 84.4067593861 119.152824049 L 84.4067593861 117.567037612 A 0.5 0.5 0 1 1 85.1138661673 116.859930831 L 91.6996526049 116.859930831 A 0.5 0.5 0 1 1 92.4067593861 117.567037612 L 92.4067593861 119.152824049 "
       stroke="#000000"
       stroke-width="0.35 px"
       style="stroke-width:0.35;stroke-miterlimit:4;stroke-dasharray:none;fill:none;fill-rule:evenodd;stroke:#0000ff;stroke-opacity:1" />
    <title
       id="title6832">coxa_back</title>
  </g>
</svg>
