<?xml version="1.0" encoding="UTF-8" standalone="no"?>
<svg
   xmlns:dc="http://purl.org/dc/elements/1.1/"
   xmlns:cc="http://creativecommons.org/ns#"
   xmlns:rdf="http://www.w3.org/1999/02/22-rdf-syntax-ns#"
   xmlns:svg="http://www.w3.org/2000/svg"
   xmlns="http://www.w3.org/2000/svg"
   xmlns:sodipodi="http://sodipodi.sourceforge.net/DTD/sodipodi-0.dtd"
   xmlns:inkscape="http://www.inkscape.org/namespaces/inkscape"
   width="46.92mm"
   height="34.12mm"
   viewBox="0 0 46.92 34.12"
   version="1.1"
   id="svg4928"
   inkscape:version="0.91 r13725"
   sodipodi:docname="coxa_front.svg">
  <metadata
     id="metadata4947">
    <rdf:RDF>
      <cc:Work
         rdf:about="">
        <dc:format>image/svg+xml</dc:format>
        <dc:type
           rdf:resource="http://purl.org/dc/dcmitype/StillImage" />
      </cc:Work>
    </rdf:RDF>
  </metadata>
  <defs
     id="defs4945" />
  <sodipodi:namedview
     pagecolor="#ffffff"
     bordercolor="#666666"
     borderopacity="1"
     objecttolerance="10"
     gridtolerance="10"
     guidetolerance="10"
     inkscape:pageopacity="0"
     inkscape:pageshadow="2"
     inkscape:window-width="1920"
     inkscape:window-height="1131"
     id="namedview4943"
     showgrid="false"
     inkscape:zoom="7.1698402"
     inkscape:cx="90.627431"
     inkscape:cy="56.130082"
     inkscape:window-x="1680"
     inkscape:window-y="24"
     inkscape:window-maximized="1"
     inkscape:current-layer="Sketch004" />
  <g
     id="Sketch004"
     transform="translate(-0.730229,124.249166) scale(1,-1)">
    <path
       id="Sketch004_w0000"
       d="M 3.19022937046 123.789166075 L 45.1902293705 123.789166075 A 2.0 2.0 0 0 0 47.1902293705 121.789166075 L 47.1902293705 92.5891660751 A 2.0 2.0 0 0 0 45.1902293705 90.5891660751 L 3.19022937046 90.5891660751 A 2.0 2.0 0 0 0 1.19022937046 92.5891660751 L 1.19022937046 121.789166075 A 2.0 2.0 0 0 0 3.19022937046 123.789166075 "
       stroke="#000000"
       stroke-width="0.35 px"
       style="stroke-width:0.35;stroke-miterlimit:4;stroke-dasharray:none;fill:none;fill-rule:evenodd;stroke:#006633;stroke-opacity:1" />
    <circle
       cx="43.8902293705"
       cy="107.589166075"
       r="1.15"
       stroke="#000000"
       stroke-width="0.35 px"
       style="stroke-width:0.35;stroke-miterlimit:4;stroke-dasharray:none;fill:none;stroke:#0000ff;stroke-opacity:1"
       id="circle4932" />
    <circle
       cx="4.49022937046"
       cy="107.589166075"
       r="1.15"
       stroke="#000000"
       stroke-width="0.35 px"
       style="stroke-width:0.35;stroke-miterlimit:4;stroke-dasharray:none;fill:none;stroke:#0000ff;stroke-opacity:1"
       id="circle4934" />
    <path
       id="Sketch004_w0003"
       d="M 39.1902293705 95.5891660751 L 39.1902293705 96.8252966167 A 5.8 5.8 0 0 1 38.9902293705 106.868536115 L 38.9902293705 107.789166075 A 2.8 2.8 0 1 1 33.3902293705 107.789166075 L 33.3902293705 106.868536115 A 5.8 5.8 0 0 1 30.4456667239 102.589166075 L 17.934792017 102.589166075 A 5.8 5.8 0 0 1 14.9902293705 106.868536115 L 14.9902293705 107.789166075 A 2.8 2.8 0 0 1 9.39022937046 107.789166075 L 9.39022937046 106.868536115 A 5.8 5.8 0 0 1 9.19022937046 96.8252966167 L 9.19022937046 95.5891660751 L 4.89733615164 95.5891660751 A 0.5 0.5 0 1 1 4.19022937046 94.882059294 L 4.19022937046 93.2962728563 A 0.5 0.5 0 0 1 4.89733615164 92.5891660751 L 11.4831225893 92.5891660751 A 0.5 0.5 0 0 1 12.1902293705 93.2962728563 L 12.1902293705 95.9891660751 A 5.8 5.8 0 0 1 17.7354976237 100.089166075 L 30.6449611173 100.089166075 A 5.8 5.8 0 0 1 36.1902293705 95.9891660751 L 36.1902293705 93.2962728563 A 0.5 0.5 0 1 1 36.8973361516 92.5891660751 L 43.4831225893 92.5891660751 A 0.5 0.5 0 1 1 44.1902293705 93.2962728563 L 44.1902293705 94.882059294 A 0.5 0.5 0 0 1 43.4831225893 95.5891660751 L 39.1902293705 95.5891660751 "
       stroke="#000000"
       stroke-width="0.35 px"
       style="stroke-width:0.35;stroke-miterlimit:4;stroke-dasharray:none;fill:none;fill-rule:evenodd;stroke:#0000ff;stroke-opacity:1" />
    <path
       id="Sketch004_w0004"
       d="M 12.1902293705 121.082059294 A 0.5 0.5 0 0 1 11.4831225893 121.789166075 L 4.89733615164 121.789166075 A 0.5 0.5 0 0 1 4.19022937046 121.082059294 L 4.19022937046 119.496272856 A 0.5 0.5 0 0 1 4.89733615164 118.789166075 L 11.4831225893 118.789166075 A 0.5 0.5 0 0 1 12.1902293705 119.496272856 L 12.1902293705 121.082059294 "
       stroke="#000000"
       stroke-width="0.35 px"
       style="stroke-width:0.35;stroke-miterlimit:4;stroke-dasharray:none;fill:none;fill-rule:evenodd;stroke:#0000ff;stroke-opacity:1" />
    <path
       id="Sketch004_w0005"
       d="M 44.1902293705 121.082059294 A 0.5 0.5 0 1 1 43.4831225893 121.789166075 L 36.8973361516 121.789166075 A 0.5 0.5 0 1 1 36.1902293705 121.082059294 L 36.1902293705 119.496272856 A 0.5 0.5 0 1 1 36.8973361516 118.789166075 L 43.4831225893 118.789166075 A 0.5 0.5 0 0 1 44.1902293705 119.496272856 L 44.1902293705 121.082059294 "
       stroke="#000000"
       stroke-width="0.35 px"
       style="stroke-width:0.35;stroke-miterlimit:4;stroke-dasharray:none;fill:none;fill-rule:evenodd;stroke:#0000ff;stroke-opacity:1" />
    <path
       id="Sketch004_w0006"
       d="M 28.1902293705 121.082059294 A 0.5 0.5 0 1 1 27.4831225893 121.789166075 L 20.8973361516 121.789166075 A 0.5 0.5 0 1 1 20.1902293705 121.082059294 L 20.1902293705 119.496272856 A 0.5 0.5 0 0 1 20.8973361516 118.789166075 L 27.4831225893 118.789166075 A 0.5 0.5 0 1 1 28.1902293705 119.496272856 L 28.1902293705 121.082059294 "
       stroke="#000000"
       stroke-width="0.35 px"
       style="stroke-width:0.35;stroke-miterlimit:4;stroke-dasharray:none;fill:none;fill-rule:evenodd;stroke:#0000ff;stroke-opacity:1" />
    <path
       id="Sketch004_w0007"
       d="M 28.1902293705 94.882059294 A 0.5 0.5 0 0 1 27.4831225893 95.5891660751 L 20.8973361516 95.5891660751 A 0.5 0.5 0 1 1 20.1902293705 94.882059294 L 20.1902293705 93.2962728563 A 0.5 0.5 0 0 1 20.8973361516 92.5891660751 L 27.4831225893 92.5891660751 A 0.5 0.5 0 0 1 28.1902293705 93.2962728563 L 28.1902293705 94.882059294 "
       stroke="#000000"
       stroke-width="0.35 px"
       style="stroke-width:0.35;stroke-miterlimit:4;stroke-dasharray:none;fill:none;fill-rule:evenodd;stroke:#0000ff;stroke-opacity:1" />
    <title
       id="title4941">coxa_front</title>
  </g>
</svg>
