<?xml version="1.0" encoding="UTF-8" standalone="no"?>
<svg
   xmlns:dc="http://purl.org/dc/elements/1.1/"
   xmlns:cc="http://creativecommons.org/ns#"
   xmlns:rdf="http://www.w3.org/1999/02/22-rdf-syntax-ns#"
   xmlns:svg="http://www.w3.org/2000/svg"
   xmlns="http://www.w3.org/2000/svg"
   xmlns:sodipodi="http://sodipodi.sourceforge.net/DTD/sodipodi-0.dtd"
   xmlns:inkscape="http://www.inkscape.org/namespaces/inkscape"
   width="46.9200077611mm"
   height="33.8200001522mm"
   viewBox="0 0 46.9200077611 33.8200001522"
   version="1.1"
   id="svg2"
   inkscape:version="0.91 r13725"
   sodipodi:docname="coxa_back.svg">
  <metadata
     id="metadata23">
    <rdf:RDF>
      <cc:Work
         rdf:about="">
        <dc:format>image/svg+xml</dc:format>
        <dc:type
           rdf:resource="http://purl.org/dc/dcmitype/StillImage" />
      </cc:Work>
    </rdf:RDF>
  </metadata>
  <defs
     id="defs21" />
  <sodipodi:namedview
     pagecolor="#ffffff"
     bordercolor="#666666"
     borderopacity="1"
     objecttolerance="10"
     gridtolerance="10"
     guidetolerance="10"
     inkscape:pageopacity="0"
     inkscape:pageshadow="2"
     inkscape:window-width="1680"
     inkscape:window-height="1026"
     id="namedview19"
     showgrid="false"
     inkscape:zoom="1.7924596"
     inkscape:cx="83.126001"
     inkscape:cy="59.917322"
     inkscape:window-x="0"
     inkscape:window-y="24"
     inkscape:window-maximized="1"
     inkscape:current-layer="Sketch003" />
  <g
     id="Sketch003"
     transform="translate(-64.889737,122.726294) scale(1,-1)">
    <path
       id="Sketch003_w0000"
       d="M 67.3497419423 122.266293531 L 109.349748079 122.266293531 A 2.0 2.0 0 0 0 111.349745011 120.266293531 L 111.349745011 91.3662935307 A 2.0 2.0 0 0 0 109.349745103 89.3662935307 L 99.3497450105 89.3662935307 A 3.41421356237 3.41421356237 0 0 0 96.9355314481 90.3662935307 A 3.41421356237 3.41421356237 0 0 1 94.5213189717 91.3662935306 L 82.1781522341 91.3662935306 A 3.41421356237 3.41421356237 0 0 1 79.7639585729 90.3662935307 A 3.41421356238 3.41421356238 0 0 0 77.3497450105 89.3662935307 L 67.3497322868 89.3662935307 A 2.0 2.0 0 0 0 65.3497374016 91.3662935307 L 65.3497374016 120.266293531 A 2.0 2.0 0 0 0 67.3497419423 122.266293531 "
       stroke="#000000"
       stroke-width="0.35 px"
       style="stroke-width:0.35;stroke-miterlimit:4;stroke-dasharray:none;fill:none;fill-rule:evenodd;stroke:#006633;stroke-opacity:1" />
    <circle
       cx="108.049745011"
       cy="106.066293531"
       r="1.45"
       stroke="#000000"
       stroke-width="0.35 px"
       style="stroke-width:0.35;stroke-miterlimit:4;stroke-dasharray:none;fill:none;stroke:#0000ff;stroke-opacity:1"
       id="circle6" />
    <circle
       cx="68.6497450105"
       cy="106.066293531"
       r="1.45"
       stroke="#000000"
       stroke-width="0.35 px"
       style="stroke-width:0.35;stroke-miterlimit:4;stroke-dasharray:none;fill:none;stroke:#0000ff;stroke-opacity:1"
       id="circle8" />
    <path
       id="Sketch003_w0003"
       d="M 102.349745011 109.316293531 A 14.0 4.95 -0.0 0 1 74.3497450105 109.316293531 A 14.0 4.95 -0.0 0 1 102.349745011 109.316293531 "
       stroke="#000000"
       stroke-width="0.35 px"
       style="stroke-width:0.35;stroke-miterlimit:4;stroke-dasharray:none;fill:none;fill-rule:evenodd;stroke:#0000ff;stroke-opacity:1" />
    <path
       id="Sketch003_w0004"
       d="M 108.349745011 93.6591867495 A 0.5 0.5 0 1 1 107.642638229 94.3662935307 L 101.056851792 94.3662935307 A 0.5 0.5 0 1 1 100.349745011 93.6591867495 L 100.349745011 92.0734003119 A 0.5 0.5 0 1 1 101.056851792 91.3662935307 L 107.642638229 91.3662935307 A 0.5 0.5 0 1 1 108.349745011 92.0734003119 L 108.349745011 93.6591867495 "
       stroke="#000000"
       stroke-width="0.35 px"
       style="stroke-width:0.35;stroke-miterlimit:4;stroke-dasharray:none;fill:none;fill-rule:evenodd;stroke:#0000ff;stroke-opacity:1" />
    <path
       id="Sketch003_w0005"
       d="M 76.3497450105 93.6591867495 A 0.5 0.5 0 1 1 75.6426382293 94.3662935307 L 69.0568441828 94.3662935307 A 0.5 0.5 0 1 1 68.3497374016 93.6591867495 L 68.3497374016 92.0734003119 A 0.5 0.5 0 1 1 69.0568441828 91.3662935307 L 75.6426382293 91.3662935307 A 0.5 0.5 0 1 1 76.3497450105 92.0734003119 L 76.3497450105 93.6591867495 "
       stroke="#000000"
       stroke-width="0.35 px"
       style="stroke-width:0.35;stroke-miterlimit:4;stroke-dasharray:none;fill:none;fill-rule:evenodd;stroke:#0000ff;stroke-opacity:1" />
    <path
       id="Sketch003_w0006"
       d="M 94.2497450105 100.659186749 A 0.5 0.5 0 0 1 93.5426382293 101.366293531 L 83.1568517917 101.366293531 A 0.5 0.5 0 1 1 82.4497450105 100.659186749 L 82.4497450105 99.5734003119 A 0.5 0.5 0 1 1 83.1568517917 98.8662935307 L 93.5426382293 98.8662935307 A 0.5 0.5 0 0 1 94.2497450105 99.5734003119 L 94.2497450105 100.659186749 "
       stroke="#000000"
       stroke-width="0.35 px"
       style="stroke-width:0.35;stroke-miterlimit:4;stroke-dasharray:none;fill:none;fill-rule:evenodd;stroke:#0000ff;stroke-opacity:1" />
    <path
       id="Sketch003_w0007"
       d="M 76.3497450105 119.559186749 A 0.5 0.5 0 0 1 75.6426382293 120.266293531 L 69.0568517917 120.266293531 A 0.5 0.5 0 1 1 68.3497450105 119.559186749 L 68.3497450105 117.973400312 A 0.5 0.5 0 1 1 69.0568517917 117.266293531 L 75.6426382293 117.266293531 A 0.5 0.5 0 0 1 76.3497450105 117.973400312 L 76.3497450105 119.559186749 "
       stroke="#000000"
       stroke-width="0.35 px"
       style="stroke-width:0.35;stroke-miterlimit:4;stroke-dasharray:none;fill:none;fill-rule:evenodd;stroke:#0000ff;stroke-opacity:1" />
    <path
       id="Sketch003_w0008"
       d="M 108.349745011 119.559186749 A 0.5 0.5 0 0 1 107.642638229 120.266293531 L 101.056851792 120.266293531 A 0.5 0.5 0 1 1 100.349745011 119.559186749 L 100.349745011 117.973400312 A 0.5 0.5 0 0 1 101.056851792 117.266293531 L 107.642638229 117.266293531 A 0.5 0.5 0 0 1 108.349745011 117.973400312 L 108.349745011 119.559186749 "
       stroke="#000000"
       stroke-width="0.35 px"
       style="stroke-width:0.35;stroke-miterlimit:4;stroke-dasharray:none;fill:none;fill-rule:evenodd;stroke:#0000ff;stroke-opacity:1" />
    <path
       id="Sketch003_w0009"
       d="M 92.3497450105 119.559186749 A 0.5 0.5 0 0 1 91.6426382293 120.266293531 L 85.0568517917 120.266293531 A 0.5 0.5 0 1 1 84.3497450105 119.559186749 L 84.3497450105 117.973400312 A 0.5 0.5 0 0 1 85.0568517917 117.266293531 L 91.6426382293 117.266293531 A 0.5 0.5 0 0 1 92.3497450105 117.973400312 L 92.3497450105 119.559186749 "
       stroke="#000000"
       stroke-width="0.35 px"
       style="stroke-width:0.35;stroke-miterlimit:4;stroke-dasharray:none;fill:none;fill-rule:evenodd;stroke:#0000ff;stroke-opacity:1" />
    <title
       id="title17">coxa_back</title>
  </g>
</svg>
