<?xml version="1.0" encoding="UTF-8" standalone="no"?>
<svg
   xmlns:dc="http://purl.org/dc/elements/1.1/"
   xmlns:cc="http://creativecommons.org/ns#"
   xmlns:rdf="http://www.w3.org/1999/02/22-rdf-syntax-ns#"
   xmlns:svg="http://www.w3.org/2000/svg"
   xmlns="http://www.w3.org/2000/svg"
   xmlns:sodipodi="http://sodipodi.sourceforge.net/DTD/sodipodi-0.dtd"
   xmlns:inkscape="http://www.inkscape.org/namespaces/inkscape"
   width="46.92mm"
   height="33.72mm"
   viewBox="0 0 46.92 33.72"
   version="1.1"
   id="svg4521"
   sodipodi:docname="coxa_front.svg"
   inkscape:version="0.92.1 r15371">
  <metadata
     id="metadata4527">
    <rdf:RDF>
      <cc:Work
         rdf:about="">
        <dc:format>image/svg+xml</dc:format>
        <dc:type
           rdf:resource="http://purl.org/dc/dcmitype/StillImage" />
      </cc:Work>
    </rdf:RDF>
  </metadata>
  <defs
     id="defs4525" />
  <sodipodi:namedview
     pagecolor="#ffffff"
     bordercolor="#666666"
     borderopacity="1"
     objecttolerance="10"
     gridtolerance="10"
     guidetolerance="10"
     inkscape:pageopacity="0"
     inkscape:pageshadow="2"
     inkscape:window-width="1082"
     inkscape:window-height="678"
     id="namedview4523"
     showgrid="false"
     inkscape:zoom="3.3093183"
     inkscape:cx="88.667713"
     inkscape:cy="63.722837"
     inkscape:window-x="0"
     inkscape:window-y="0"
     inkscape:window-maximized="0"
     inkscape:current-layer="Sketch004" />
  <g
     id="Sketch004"
     transform="translate(-0.730248,124.049166) scale(1,-1)">
    <path
       id="Sketch004_w0000"
       d="M 3.190247685 123.589165841 L 45.190247685 123.589165841 A 2.0 2.0 0 0 0 47.190247685 121.589165841 L 47.190247685 92.7891658407 A 2.0 2.0 0 0 0 45.190247685 90.7891658407 L 3.190247685 90.7891658407 A 2.0 2.0 0 0 0 1.190247685 92.7891658407 L 1.190247685 121.589165841 A 2.0 2.0 0 0 0 3.190247685 123.589165841 "
       stroke="#000000"
       stroke-width="0.35 px"
       style="stroke-width:0.35;stroke-miterlimit:4;stroke-dasharray:none;fill:none;fill-rule:evenodd;stroke:#006633;stroke-opacity:1" />
    <circle
       cx="43.890247685"
       cy="107.589165841"
       r="1.15"
       stroke="#000000"
       stroke-width="0.35 px"
       style="stroke-width:0.35;stroke-miterlimit:4;stroke-dasharray:none;fill:none;stroke:#0000ff;stroke-opacity:1"
       id="circle4509" />
    <circle
       cx="4.490247685"
       cy="107.589165841"
       r="1.15"
       stroke="#000000"
       stroke-width="0.35 px"
       style="stroke-width:0.35;stroke-miterlimit:4;stroke-dasharray:none;fill:none;stroke:#0000ff;stroke-opacity:1"
       id="circle4511" />
    <path
       id="Sketch004_w0003"
       d="M 39.190247685 95.5891658407 L 39.190247685 96.8252963823 A 5.8 5.8 0 0 1 38.990247685 106.86853588 L 38.990247685 107.789165841 A 2.8 2.8 0 1 1 33.390247685 107.789165841 L 33.390247685 106.86853588 A 5.8 5.8 0 0 1 30.4456850385 102.589165841 L 17.9348103315 102.589165841 A 5.8 5.8 0 0 1 14.990247685 106.86853588 L 14.990247685 107.789165841 A 2.8 2.8 0 0 1 9.390247685 107.789165841 L 9.390247685 106.86853588 A 5.8 5.8 0 0 1 9.190247685 96.8252963823 L 9.190247685 95.5891658407 L 4.89735446619 95.5891658407 A 0.5 0.5 0 1 1 4.190247685 94.8820590595 L 4.190247685 93.4962726219 A 0.5 0.5 0 1 1 4.89735446619 92.7891658407 L 11.4831409038 92.7891658407 A 0.5 0.5 0 0 1 12.190247685 93.4962726219 L 12.190247685 95.9891658407 A 5.8 5.8 0 0 1 17.7355159382 100.089165841 L 30.6449794318 100.089165841 A 5.8 5.8 0 0 1 36.190247685 95.9891658407 L 36.190247685 93.4962726219 A 0.5 0.5 0 0 1 36.8973544662 92.7891658407 L 43.4831409038 92.7891658407 A 0.5 0.5 0 1 1 44.190247685 93.4962726219 L 44.190247685 94.8820590595 A 0.5 0.5 0 1 1 43.4831409038 95.5891658407 L 39.190247685 95.5891658407 "
       stroke="#000000"
       stroke-width="0.35 px"
       style="stroke-width:0.35;stroke-miterlimit:4;stroke-dasharray:none;fill:none;fill-rule:evenodd;stroke:#0000ff;stroke-opacity:1" />
    <path
       id="Sketch004_w0004"
       d="M 12.190247685 120.88205906 A 0.5 0.5 0 1 1 11.4831409038 121.589165841 L 4.89735446619 121.589165841 A 0.5 0.5 0 0 1 4.190247685 120.88205906 L 4.190247685 119.496272622 A 0.5 0.5 0 0 1 4.89735446619 118.789165841 L 11.4831409038 118.789165841 A 0.5 0.5 0 1 1 12.190247685 119.496272622 L 12.190247685 120.88205906 "
       stroke="#000000"
       stroke-width="0.35 px"
       style="stroke-width:0.35;stroke-miterlimit:4;stroke-dasharray:none;fill:none;fill-rule:evenodd;stroke:#0000ff;stroke-opacity:1" />
    <path
       id="Sketch004_w0005"
       d="M 44.190247685 120.88205906 A 0.5 0.5 0 1 1 43.4831409038 121.589165841 L 36.8973544662 121.589165841 A 0.5 0.5 0 0 1 36.190247685 120.88205906 L 36.190247685 119.496272622 A 0.5 0.5 0 0 1 36.8973544662 118.789165841 L 43.4831409038 118.789165841 A 0.5 0.5 0 1 1 44.190247685 119.496272622 L 44.190247685 120.88205906 "
       stroke="#000000"
       stroke-width="0.35 px"
       style="stroke-width:0.35;stroke-miterlimit:4;stroke-dasharray:none;fill:none;fill-rule:evenodd;stroke:#0000ff;stroke-opacity:1" />
    <path
       id="Sketch004_w0006"
       d="M 28.190247685 120.88205906 A 0.5 0.5 0 0 1 27.4831409038 121.589165841 L 20.8973544662 121.589165841 A 0.5 0.5 0 0 1 20.190247685 120.88205906 L 20.190247685 119.496272622 A 0.5 0.5 0 1 1 20.8973544662 118.789165841 L 27.4831409038 118.789165841 A 0.5 0.5 0 1 1 28.190247685 119.496272622 L 28.190247685 120.88205906 "
       stroke="#000000"
       stroke-width="0.35 px"
       style="stroke-width:0.35;stroke-miterlimit:4;stroke-dasharray:none;fill:none;fill-rule:evenodd;stroke:#0000ff;stroke-opacity:1" />
    <path
       id="Sketch004_w0007"
       d="M 28.190247685 94.8820590595 A 0.5 0.5 0 0 1 27.4831409038 95.5891658407 L 20.8973544662 95.5891658407 A 0.5 0.5 0 0 1 20.190247685 94.8820590595 L 20.190247685 93.4962726219 A 0.5 0.5 0 1 1 20.8973544662 92.7891658407 L 27.4831409038 92.7891658407 A 0.5 0.5 0 0 1 28.190247685 93.4962726219 L 28.190247685 94.8820590595 "
       stroke="#000000"
       stroke-width="0.35 px"
       style="stroke-width:0.35;stroke-miterlimit:4;stroke-dasharray:none;fill:none;fill-rule:evenodd;stroke:#0000ff;stroke-opacity:1" />
    <title
       id="title4518">coxa_front</title>
  </g>
</svg>
