<?xml version="1.0"?>
<!DOCTYPE svg PUBLIC "-//W3C//DTD SVG 1.1//EN" "http://www.w3.org/Graphics/SVG/1.1/DTD/svg11.dtd">
<svg width="46.92mm" height="29.32mm" viewBox="0 0 46.92 29.32" xmlns="http://www.w3.org/2000/svg" version="1.1">
<g id="Sketch005" transform="translate(-4.910313,159.902964) scale(1,-1)">
<path id="Sketch005_w0000"  d="M 23.6632065248 134.042963855 L 17.0774200872 134.042963855 A 0.5 0.5 0 1 1 16.370313306 133.335857073 L 16.370313306 131.042963855 L 8.37031330603 131.042963855 L 8.37031330603 133.335857073 A 0.5 0.5 0 0 1 7.66320652484 134.042963855 L 5.37031330603 134.042963855 L 5.37031330603 156.442963855 L 7.66320652484 156.442963855 A 0.5 0.5 0 1 1 8.37031330603 157.150070636 L 8.37031330603 159.442963855 L 16.370313306 159.442963855 L 16.370313306 157.150070636 A 0.5 0.5 0 1 1 17.0774200872 156.442963855 L 24.0772957193 156.442963855 L 24.0772957193 154.442963855 A 5.8 5.8 0 0 1 25.570313306 145.463593815 L 25.570313306 144.542963855 A 2.8 2.8 0 1 1 31.170313306 144.542963855 L 31.170313306 145.463593815 A 5.8 5.8 0 0 1 32.6633308928 154.442963855 L 32.6633308928 156.442963855 L 39.6632065248 156.442963855 A 0.5 0.5 0 1 1 40.370313306 157.150070636 L 40.370313306 159.442963855 L 48.370313306 159.442963855 L 48.370313306 157.150070636 A 0.5 0.5 0 1 1 49.0774200872 156.442963855 L 51.370313306 156.442963855 L 51.370313306 134.042963855 L 49.0774200872 134.042963855 A 0.5 0.5 0 1 1 48.370313306 133.335857073 L 48.370313306 131.042963855 L 40.370313306 131.042963855 L 40.370313306 133.335857073 A 0.5 0.5 0 0 1 39.6632065248 134.042963855 L 33.0774200872 134.042963855 A 0.5 0.5 0 1 1 32.370313306 133.335857073 L 32.370313306 131.042963855 L 24.370313306 131.042963855 L 24.370313306 133.335857073 A 0.5 0.5 0 0 1 23.6632065248 134.042963855 " stroke="#000000" stroke-width="0.35 px" style="stroke-width:0.35;stroke-miterlimit:4;stroke-dasharray:none;fill:none;fill-rule: evenodd "/>
<path id="Sketch005_w0001"  d="M 45.6632065248 138.242963855 A 0.5 0.5 0 1 1 46.370313306 138.950070636 L 46.370313306 140.035857073 A 0.5 0.5 0 1 1 45.6632065248 140.742963855 L 35.2774200872 140.742963855 A 0.5 0.5 0 1 1 34.570313306 140.035857073 L 34.570313306 138.950070636 A 0.5 0.5 0 0 1 35.2774200872 138.242963855 L 45.6632065248 138.242963855 " stroke="#000000" stroke-width="0.35 px" style="stroke-width:0.35;stroke-miterlimit:4;stroke-dasharray:none;fill:none;fill-rule: evenodd "/>
<path id="Sketch005_w0002"  d="M 21.4632065248 138.242963855 A 0.5 0.5 0 1 1 22.170313306 138.950070636 L 22.170313306 140.035857073 A 0.5 0.5 0 0 1 21.4632065248 140.742963855 L 11.0774200872 140.742963855 A 0.5 0.5 0 1 1 10.370313306 140.035857073 L 10.370313306 138.950070636 A 0.5 0.5 0 1 1 11.0774200872 138.242963855 L 21.4632065248 138.242963855 " stroke="#000000" stroke-width="0.35 px" style="stroke-width:0.35;stroke-miterlimit:4;stroke-dasharray:none;fill:none;fill-rule: evenodd "/>
<path id="Sketch005_w0003"  d="M 17.6632065248 146.842963855 A 0.5 0.5 0 1 1 18.370313306 147.550070636 L 18.370313306 152.135857073 A 0.5 0.5 0 0 1 17.6632065248 152.842963855 L 9.07742008722 152.842963855 A 0.5 0.5 0 1 1 8.37031330603 152.135857073 L 8.37031330603 147.550070636 A 0.5 0.5 0 1 1 9.07742008722 146.842963855 L 17.6632065248 146.842963855 " stroke="#000000" stroke-width="0.35 px" style="stroke-width:0.35;stroke-miterlimit:4;stroke-dasharray:none;fill:none;fill-rule: evenodd "/>
<path id="Sketch005_w0004"  d="M 47.6632065248 146.842963855 A 0.5 0.5 0 0 1 48.370313306 147.550070636 L 48.370313306 152.135857073 A 0.5 0.5 0 0 1 47.6632065248 152.842963855 L 39.0774200872 152.842963855 A 0.5 0.5 0 1 1 38.370313306 152.135857073 L 38.370313306 147.550070636 A 0.5 0.5 0 0 1 39.0774200872 146.842963855 L 47.6632065248 146.842963855 " stroke="#000000" stroke-width="0.35 px" style="stroke-width:0.35;stroke-miterlimit:4;stroke-dasharray:none;fill:none;fill-rule: evenodd "/>
<title>coxa_down</title>
</g>
</svg>