<?xml version="1.0"?>
<!DOCTYPE svg PUBLIC "-//W3C//DTD SVG 1.1//EN" "http://www.w3.org/Graphics/SVG/1.1/DTD/svg11.dtd">
<svg width="48.858mm" height="26.358mm" viewBox="0 0 48.858 26.358" xmlns="http://www.w3.org/2000/svg" version="1.1">
<g id="Sketch001" transform="translate(-9.130463,126.270833) scale(1,-1)">
<path id="Sketch001_w0000"  d="M 9.609463 125.791833 L 57.509463 125.791833 L 57.509463 100.391833 L 9.609463 100.391833 L 9.609463 125.791833 " stroke="#000000" stroke-width="0.35 px" style="stroke-width:0.35;stroke-miterlimit:4;stroke-dasharray:none;fill:none;fill-rule: evenodd "/>
<path id="Sketch001_w0001"  d="M 39.759463 107.091833 L 51.559463 107.091833 L 51.559463 104.591833 L 39.759463 104.591833 L 39.759463 107.091833 " stroke="#000000" stroke-width="0.35 px" style="stroke-width:0.35;stroke-miterlimit:4;stroke-dasharray:none;fill:none;fill-rule: evenodd "/>
<path id="Sketch001_w0002"  d="M 15.559463 107.091833 L 27.359463 107.091833 L 27.359463 104.591833 L 15.559463 104.591833 L 15.559463 107.091833 " stroke="#000000" stroke-width="0.35 px" style="stroke-width:0.35;stroke-miterlimit:4;stroke-dasharray:none;fill:none;fill-rule: evenodd "/>
<circle cx="53.059463" cy="114.591833" r="1.2" stroke="#000000" stroke-width="0.35 px" style="stroke-width:0.35;stroke-miterlimit:4;stroke-dasharray:none;fill:none"/>
<circle cx="14.059463" cy="114.591833" r="1.2" stroke="#000000" stroke-width="0.35 px" style="stroke-width:0.35;stroke-miterlimit:4;stroke-dasharray:none;fill:none"/>
<path id="Sketch001_w0005"  d="M 31.059463 110.591833 A 2.5 2.5 0 1 1 36.059463 110.591833 L 36.059463 111.547677314 A 5.9 5.9 0 1 1 31.059463 111.547677314 L 31.059463 110.591833 " stroke="#000000" stroke-width="0.35 px" style="stroke-width:0.35;stroke-miterlimit:4;stroke-dasharray:none;fill:none;fill-rule: evenodd "/>
<path id="Sketch001_w0006"  d="M 41.659463 122.191833 L 49.659463 122.191833 L 49.659463 119.191833 L 41.659463 119.191833 L 41.659463 122.191833 " stroke="#000000" stroke-width="0.35 px" style="stroke-width:0.35;stroke-miterlimit:4;stroke-dasharray:none;fill:none;fill-rule: evenodd "/>
<path id="Sketch001_w0007"  d="M 17.459463 122.191833 L 17.459463 119.191833 L 25.459463 119.191833 L 25.459463 122.191833 L 17.459463 122.191833 " stroke="#000000" stroke-width="0.35 px" style="stroke-width:0.35;stroke-miterlimit:4;stroke-dasharray:none;fill:none;fill-rule: evenodd "/>
<title>coxa_down</title>
</g>
</svg>