<?xml version="1.0" encoding="UTF-8" standalone="no"?>
<svg
   xmlns:dc="http://purl.org/dc/elements/1.1/"
   xmlns:cc="http://creativecommons.org/ns#"
   xmlns:rdf="http://www.w3.org/1999/02/22-rdf-syntax-ns#"
   xmlns:svg="http://www.w3.org/2000/svg"
   xmlns="http://www.w3.org/2000/svg"
   xmlns:sodipodi="http://sodipodi.sourceforge.net/DTD/sodipodi-0.dtd"
   xmlns:inkscape="http://www.inkscape.org/namespaces/inkscape"
   width="46.9199837159mm"
   height="33.7199996807mm"
   viewBox="0 0 46.9199837159 33.7199996807"
   version="1.1"
   id="svg4500"
   sodipodi:docname="coxa_back.svg"
   inkscape:version="0.92.1 r15371">
  <metadata
     id="metadata4506">
    <rdf:RDF>
      <cc:Work
         rdf:about="">
        <dc:format>image/svg+xml</dc:format>
        <dc:type
           rdf:resource="http://purl.org/dc/dcmitype/StillImage" />
      </cc:Work>
    </rdf:RDF>
  </metadata>
  <defs
     id="defs4504" />
  <sodipodi:namedview
     pagecolor="#ffffff"
     bordercolor="#666666"
     borderopacity="1"
     objecttolerance="10"
     gridtolerance="10"
     guidetolerance="10"
     inkscape:pageopacity="0"
     inkscape:pageshadow="2"
     inkscape:window-width="1041"
     inkscape:window-height="665"
     id="namedview4502"
     showgrid="false"
     inkscape:zoom="2.6064405"
     inkscape:cx="91.570805"
     inkscape:cy="66.744141"
     inkscape:window-x="48"
     inkscape:window-y="24"
     inkscape:window-maximized="0"
     inkscape:current-layer="Sketch003" />
  <g
     id="Sketch003"
     transform="translate(-64.876257,122.669005) scale(1,-1)">
    <path
       id="Sketch003_w0000"
       d="M 67.3362413018 122.209004773 L 109.336240297 122.209004773 A 2.0 2.0 0 0 0 111.336240799 120.209004773 L 111.336240799 91.4090047734 A 2.0 2.0 0 0 0 109.336241017 89.4090047734 L 99.3362407994 89.4090047734 A 3.41421356237 3.41421356237 0 0 0 96.922027237 90.4090047734 A 3.41421356237 3.41421356237 0 0 1 94.5078149648 91.4090047734 L 82.1646730842 91.4090047734 A 3.41421356237 3.41421356237 0 0 1 79.7504543618 90.4090047734 A 3.41421356238 3.41421356238 0 0 0 77.3362407994 89.4090047734 L 67.3362558374 89.4090047734 A 2.0 2.0 0 0 0 65.3362567642 91.4090047734 L 65.3362567642 120.209004773 A 2.0 2.0 0 0 0 67.3362413018 122.209004773 "
       stroke="#000000"
       stroke-width="0.35 px"
       style="stroke-width:0.35;stroke-miterlimit:4;stroke-dasharray:none;fill:none;fill-rule:evenodd;stroke:#006633;stroke-opacity:1" />
    <circle
       cx="108.036240799"
       cy="106.209004773"
       r="1.45"
       stroke="#000000"
       stroke-width="0.35 px"
       style="stroke-width:0.35;stroke-miterlimit:4;stroke-dasharray:none;fill:none;stroke:#0000ff;stroke-opacity:1"
       id="circle4486" />
    <circle
       cx="68.6362407994"
       cy="106.209004773"
       r="1.45"
       stroke="#000000"
       stroke-width="0.35 px"
       style="stroke-width:0.35;stroke-miterlimit:4;stroke-dasharray:none;fill:none;stroke:#0000ff;stroke-opacity:1"
       id="circle4488" />
    <path
       id="Sketch003_w0003"
       d="M 102.336240799 109.309004773 A 14.0 5.1 -0.0 0 1 74.3362407994 109.309004773 A 14.0 5.1 -0.0 0 1 102.336240799 109.309004773 "
       stroke="#000000"
       stroke-width="0.35 px"
       style="stroke-width:0.35;stroke-miterlimit:4;stroke-dasharray:none;fill:none;fill-rule:evenodd;stroke:#0000ff;stroke-opacity:1" />
    <path
       id="Sketch003_w0004"
       d="M 108.336240799 93.5018979923 A 0.5 0.5 0 0 1 107.629134018 94.2090047734 L 101.043347581 94.2090047734 A 0.5 0.5 0 0 1 100.336240799 93.5018979923 L 100.336240799 92.1161115546 A 0.5 0.5 0 1 1 101.043347581 91.4090047734 L 107.629134018 91.4090047734 A 0.5 0.5 0 0 1 108.336240799 92.1161115546 L 108.336240799 93.5018979923 "
       stroke="#000000"
       stroke-width="0.35 px"
       style="stroke-width:0.35;stroke-miterlimit:4;stroke-dasharray:none;fill:none;fill-rule:evenodd;stroke:#0000ff;stroke-opacity:1" />
    <path
       id="Sketch003_w0005"
       d="M 76.3362407994 93.5018979923 A 0.5 0.5 0 0 1 75.6291340182 94.2090047734 L 69.0433635454 94.2090047734 A 0.5 0.5 0 0 1 68.3362567642 93.5018979923 L 68.3362567642 92.1161115546 A 0.5 0.5 0 0 1 69.0433635454 91.4090047734 L 75.6291340182 91.4090047734 A 0.5 0.5 0 0 1 76.3362407994 92.1161115546 L 76.3362407994 93.5018979923 "
       stroke="#000000"
       stroke-width="0.35 px"
       style="stroke-width:0.35;stroke-miterlimit:4;stroke-dasharray:none;fill:none;fill-rule:evenodd;stroke:#0000ff;stroke-opacity:1" />
    <path
       id="Sketch003_w0006"
       d="M 94.2362407994 100.501897992 A 0.5 0.5 0 0 1 93.5291340182 101.209004773 L 83.1433475806 101.209004773 A 0.5 0.5 0 0 1 82.4362407994 100.501897992 L 82.4362407994 99.4161115546 A 0.5 0.5 0 0 1 83.1433475806 98.7090047734 L 93.5291340182 98.7090047734 A 0.5 0.5 0 0 1 94.2362407994 99.4161115546 L 94.2362407994 100.501897992 "
       stroke="#000000"
       stroke-width="0.35 px"
       style="stroke-width:0.35;stroke-miterlimit:4;stroke-dasharray:none;fill:none;fill-rule:evenodd;stroke:#0000ff;stroke-opacity:1" />
    <path
       id="Sketch003_w0007"
       d="M 76.3362407994 119.501897992 A 0.5 0.5 0 1 1 75.6291340182 120.209004773 L 69.0433475806 120.209004773 A 0.5 0.5 0 1 1 68.3362407994 119.501897992 L 68.3362407994 118.116111555 A 0.5 0.5 0 1 1 69.0433475806 117.409004773 L 75.6291340182 117.409004773 A 0.5 0.5 0 0 1 76.3362407994 118.116111555 L 76.3362407994 119.501897992 "
       stroke="#000000"
       stroke-width="0.35 px"
       style="stroke-width:0.35;stroke-miterlimit:4;stroke-dasharray:none;fill:none;fill-rule:evenodd;stroke:#0000ff;stroke-opacity:1" />
    <path
       id="Sketch003_w0008"
       d="M 108.336240799 119.501897992 A 0.5 0.5 0 0 1 107.629134018 120.209004773 L 101.043347581 120.209004773 A 0.5 0.5 0 0 1 100.336240799 119.501897992 L 100.336240799 118.116111555 A 0.5 0.5 0 0 1 101.043347581 117.409004773 L 107.629134018 117.409004773 A 0.5 0.5 0 0 1 108.336240799 118.116111555 L 108.336240799 119.501897992 "
       stroke="#000000"
       stroke-width="0.35 px"
       style="stroke-width:0.35;stroke-miterlimit:4;stroke-dasharray:none;fill:none;fill-rule:evenodd;stroke:#0000ff;stroke-opacity:1" />
    <path
       id="Sketch003_w0009"
       d="M 92.3362407994 119.501897992 A 0.5 0.5 0 1 1 91.6291340182 120.209004773 L 85.0433475806 120.209004773 A 0.5 0.5 0 1 1 84.3362407994 119.501897992 L 84.3362407994 118.116111555 A 0.5 0.5 0 1 1 85.0433475806 117.409004773 L 91.6291340182 117.409004773 A 0.5 0.5 0 0 1 92.3362407994 118.116111555 L 92.3362407994 119.501897992 "
       stroke="#000000"
       stroke-width="0.35 px"
       style="stroke-width:0.35;stroke-miterlimit:4;stroke-dasharray:none;fill:none;fill-rule:evenodd;stroke:#0000ff;stroke-opacity:1" />
    <title
       id="title4497">coxa_back</title>
  </g>
</svg>
