<?xml version="1.0"?>
<!DOCTYPE svg PUBLIC "-//W3C//DTD SVG 1.1//EN" "http://www.w3.org/Graphics/SVG/1.1/DTD/svg11.dtd">
<svg width="46.92mm" height="33.42mm" viewBox="0 0 46.92 33.42" xmlns="http://www.w3.org/2000/svg" version="1.1">
<g id="Sketch004" transform="translate(-0.571843,124.149707) scale(1,-1)">
<path id="Sketch004_w0000"  d="M 3.03184285794 123.689706773 L 45.0318428579 123.689706773 A 2.0 2.0 0 0 0 47.0318428579 121.689706773 L 47.0318428579 93.1897067731 A 2.0 2.0 0 0 0 45.0318428579 91.1897067731 L 3.03184285794 91.1897067731 A 2.0 2.0 0 0 0 1.03184285794 93.1897067731 L 1.03184285794 121.689706773 A 2.0 2.0 0 0 0 3.03184285794 123.689706773 " stroke="#000000" stroke-width="0.35 px" style="stroke-width:0.35;stroke-miterlimit:4;stroke-dasharray:none;fill:none;fill-rule: evenodd "/>
<circle cx="43.5318428579" cy="107.489706773" r="1.15" stroke="#000000" stroke-width="0.35 px" style="stroke-width:0.35;stroke-miterlimit:4;stroke-dasharray:none;fill:none"/>
<circle cx="4.53184285794" cy="107.489706773" r="1.15" stroke="#000000" stroke-width="0.35 px" style="stroke-width:0.35;stroke-miterlimit:4;stroke-dasharray:none;fill:none"/>
<path id="Sketch004_w0003"  d="M 39.0318428579 96.1897067731 L 39.0318428579 97.1258373147 A 5.8 5.8 0 0 1 38.8318428579 107.169076813 L 38.8318428579 108.089706773 A 2.8 2.8 0 1 1 33.2318428579 108.089706773 L 33.2318428579 107.169076813 A 5.8 5.8 0 0 1 30.2872802114 102.889706773 L 17.7764055045 102.889706773 A 5.8 5.8 0 0 1 14.8318428579 107.169076813 L 14.8318428579 108.089706773 A 2.8 2.8 0 1 1 9.23184285794 108.089706773 L 9.23184285794 107.169076813 A 5.8 5.8 0 0 1 9.03184285794 97.1258373147 L 9.03184285794 96.1897067731 L 4.73894963913 96.1897067731 A 0.5 0.5 0 0 1 4.03184285794 95.4825999919 L 4.03184285794 93.8968135543 A 0.5 0.5 0 1 1 4.73894963913 93.1897067731 L 11.3247360768 93.1897067731 A 0.5 0.5 0 1 1 12.0318428579 93.8968135543 L 12.0318428579 96.2897067731 A 5.8 5.8 0 0 1 17.5771111111 100.389706773 L 30.4865746047 100.389706773 A 5.8 5.8 0 0 1 36.0318428579 96.2897067731 L 36.0318428579 93.8968135543 A 0.5 0.5 0 0 1 36.7389496391 93.1897067731 L 43.3247360768 93.1897067731 A 0.5 0.5 0 0 1 44.0318428579 93.8968135543 L 44.0318428579 95.4825999919 A 0.5 0.5 0 0 1 43.3247360768 96.1897067731 L 39.0318428579 96.1897067731 " stroke="#000000" stroke-width="0.35 px" style="stroke-width:0.35;stroke-miterlimit:4;stroke-dasharray:none;fill:none;fill-rule: evenodd "/>
<path id="Sketch004_w0004"  d="M 12.0318428579 120.982599992 A 0.5 0.5 0 0 1 11.3247360768 121.689706773 L 4.73894963913 121.689706773 A 0.5 0.5 0 0 1 4.03184285794 120.982599992 L 4.03184285794 119.396813554 A 0.5 0.5 0 0 1 4.73894963913 118.689706773 L 11.3247360768 118.689706773 A 0.5 0.5 0 0 1 12.0318428579 119.396813554 L 12.0318428579 120.982599992 " stroke="#000000" stroke-width="0.35 px" style="stroke-width:0.35;stroke-miterlimit:4;stroke-dasharray:none;fill:none;fill-rule: evenodd "/>
<path id="Sketch004_w0005"  d="M 44.0318428579 120.982599992 A 0.5 0.5 0 1 1 43.3247360768 121.689706773 L 36.7389496391 121.689706773 A 0.5 0.5 0 0 1 36.0318428579 120.982599992 L 36.0318428579 119.396813554 A 0.5 0.5 0 0 1 36.7389496391 118.689706773 L 43.3247360768 118.689706773 A 0.5 0.5 0 1 1 44.0318428579 119.396813554 L 44.0318428579 120.982599992 " stroke="#000000" stroke-width="0.35 px" style="stroke-width:0.35;stroke-miterlimit:4;stroke-dasharray:none;fill:none;fill-rule: evenodd "/>
<path id="Sketch004_w0006"  d="M 28.0318428579 120.982599992 A 0.5 0.5 0 0 1 27.3247360768 121.689706773 L 20.7389496391 121.689706773 A 0.5 0.5 0 0 1 20.0318428579 120.982599992 L 20.0318428579 119.396813554 A 0.5 0.5 0 0 1 20.7389496391 118.689706773 L 27.3247360768 118.689706773 A 0.5 0.5 0 1 1 28.0318428579 119.396813554 L 28.0318428579 120.982599992 " stroke="#000000" stroke-width="0.35 px" style="stroke-width:0.35;stroke-miterlimit:4;stroke-dasharray:none;fill:none;fill-rule: evenodd "/>
<path id="Sketch004_w0007"  d="M 28.0318428579 95.4825999919 A 0.5 0.5 0 0 1 27.3247360768 96.1897067731 L 20.7389496391 96.1897067731 A 0.5 0.5 0 1 1 20.0318428579 95.4825999919 L 20.0318428579 93.8968135543 A 0.5 0.5 0 1 1 20.7389496391 93.1897067731 L 27.3247360768 93.1897067731 A 0.5 0.5 0 1 1 28.0318428579 93.8968135543 L 28.0318428579 95.4825999919 " stroke="#000000" stroke-width="0.35 px" style="stroke-width:0.35;stroke-miterlimit:4;stroke-dasharray:none;fill:none;fill-rule: evenodd "/>
<title>coxa_front</title>
</g>
</svg>