<?xml version="1.0"?>
<!DOCTYPE svg PUBLIC "-//W3C//DTD SVG 1.1//EN" "http://www.w3.org/Graphics/SVG/1.1/DTD/svg11.dtd">
<svg width="48.858mm" height="26.358mm" viewBox="0 0 48.858 26.358" xmlns="http://www.w3.org/2000/svg" version="1.1">
<g id="Sketch001" transform="translate(-9.506314,126.453662) scale(1,-1)">
<path id="Sketch001_w0000"  d="M 9.98531405884 125.974662068 L 57.8853140588 125.974662068 L 57.8853140588 100.574662068 L 9.98531405884 100.574662068 L 9.98531405884 125.974662068 " stroke="#000000" stroke-width="0.35 px" style="stroke-width:0.35;stroke-miterlimit:4;stroke-dasharray:none;fill:none;fill-rule: evenodd "/>
<path id="Sketch001_w0001"  d="M 40.1353140588 107.274662068 L 51.9353140588 107.274662068 L 51.9353140588 104.774662068 L 40.1353140588 104.774662068 L 40.1353140588 107.274662068 " stroke="#000000" stroke-width="0.35 px" style="stroke-width:0.35;stroke-miterlimit:4;stroke-dasharray:none;fill:none;fill-rule: evenodd "/>
<path id="Sketch001_w0002"  d="M 15.9353140588 107.274662068 L 27.7353140588 107.274662068 L 27.7353140588 104.774662068 L 15.9353140588 104.774662068 L 15.9353140588 107.274662068 " stroke="#000000" stroke-width="0.35 px" style="stroke-width:0.35;stroke-miterlimit:4;stroke-dasharray:none;fill:none;fill-rule: evenodd "/>
<circle cx="53.4353140588" cy="114.774662068" r="1.2" stroke="#000000" stroke-width="0.35 px" style="stroke-width:0.35;stroke-miterlimit:4;stroke-dasharray:none;fill:none"/>
<circle cx="14.4353140588" cy="114.774662068" r="1.2" stroke="#000000" stroke-width="0.35 px" style="stroke-width:0.35;stroke-miterlimit:4;stroke-dasharray:none;fill:none"/>
<path id="Sketch001_w0005"  d="M 31.3353140588 110.774662068 A 2.6 2.6 0 0 1 36.5353140588 110.774662068 L 36.5353140588 111.778436997 A 5.9 5.9 0 1 1 31.3353140588 111.778436997 L 31.3353140588 110.774662068 " stroke="#000000" stroke-width="0.35 px" style="stroke-width:0.35;stroke-miterlimit:4;stroke-dasharray:none;fill:none;fill-rule: evenodd "/>
<path id="Sketch001_w0006"  d="M 42.0353140588 119.374662068 L 50.0353140588 119.374662068 L 50.0353140588 116.374662068 L 42.0353140588 116.374662068 L 42.0353140588 119.374662068 " stroke="#000000" stroke-width="0.35 px" style="stroke-width:0.35;stroke-miterlimit:4;stroke-dasharray:none;fill:none;fill-rule: evenodd "/>
<path id="Sketch001_w0007"  d="M 17.8353140588 119.374662068 L 17.8353140588 116.374662068 L 25.8353140588 116.374662068 L 25.8353140588 119.374662068 L 17.8353140588 119.374662068 " stroke="#000000" stroke-width="0.35 px" style="stroke-width:0.35;stroke-miterlimit:4;stroke-dasharray:none;fill:none;fill-rule: evenodd "/>
<title>coxa_down</title>
</g>
</svg>