<?xml version="1.0" encoding="UTF-8" standalone="no"?>
<svg
   xmlns:dc="http://purl.org/dc/elements/1.1/"
   xmlns:cc="http://creativecommons.org/ns#"
   xmlns:rdf="http://www.w3.org/1999/02/22-rdf-syntax-ns#"
   xmlns:svg="http://www.w3.org/2000/svg"
   xmlns="http://www.w3.org/2000/svg"
   xmlns:sodipodi="http://sodipodi.sourceforge.net/DTD/sodipodi-0.dtd"
   xmlns:inkscape="http://www.inkscape.org/namespaces/inkscape"
   width="46.92mm"
   height="30.12mm"
   viewBox="0 0 46.92 30.12"
   version="1.1"
   id="svg5542"
   inkscape:version="0.91 r13725"
   sodipodi:docname="coxa_up.svg">
  <metadata
     id="metadata5558">
    <rdf:RDF>
      <cc:Work
         rdf:about="">
        <dc:format>image/svg+xml</dc:format>
        <dc:type
           rdf:resource="http://purl.org/dc/dcmitype/StillImage" />
      </cc:Work>
    </rdf:RDF>
  </metadata>
  <defs
     id="defs5556" />
  <sodipodi:namedview
     pagecolor="#ffffff"
     bordercolor="#666666"
     borderopacity="1"
     objecttolerance="10"
     gridtolerance="10"
     guidetolerance="10"
     inkscape:pageopacity="0"
     inkscape:pageshadow="2"
     inkscape:window-width="1920"
     inkscape:window-height="1131"
     id="namedview5554"
     showgrid="false"
     inkscape:zoom="7.1698402"
     inkscape:cx="81.672824"
     inkscape:cy="52.105335"
     inkscape:window-x="1680"
     inkscape:window-y="24"
     inkscape:window-maximized="1"
     inkscape:current-layer="Sketch006" />
  <g
     id="Sketch006"
     transform="translate(-64.004112,158.736758) scale(1,-1)">
    <path
       id="Sketch006_w0000"
       d="M 82.7570047362 132.076757623 L 76.1712182986 132.076757623 A 0.5 0.5 0 1 1 75.4641115174 131.369650842 L 75.4641115174 129.076757623 L 67.4641115174 129.076757623 L 67.4641115174 131.369650842 A 0.5 0.5 0 0 1 66.7570047362 132.076757623 L 64.4641115174 132.076757623 L 64.4641115174 155.276757623 L 66.7570047362 155.276757623 A 0.5 0.5 0 1 1 67.4641115174 155.983864405 L 67.4641115174 158.276757623 L 75.4641115174 158.276757623 L 75.4641115174 155.983864405 A 0.5 0.5 0 0 1 76.1712182986 155.276757623 L 82.7570047362 155.276757623 A 0.5 0.5 0 0 1 83.4641115174 155.983864405 L 83.4641115174 158.276757623 L 91.4641115174 158.276757623 L 91.4641115174 155.983864405 A 0.5 0.5 0 1 1 92.1712182986 155.276757623 L 98.7570047362 155.276757623 A 0.5 0.5 0 0 1 99.4641115174 155.983864405 L 99.4641115174 158.276757623 L 107.464111517 158.276757623 L 107.464111517 155.983864405 A 0.5 0.5 0 0 1 108.171218299 155.276757623 L 110.464111517 155.276757623 L 110.464111517 132.076757623 L 108.171218299 132.076757623 A 0.5 0.5 0 0 1 107.464111517 131.369650842 L 107.464111517 129.076757623 L 99.4641115174 129.076757623 L 99.4641115174 131.369650842 A 0.5 0.5 0 0 1 98.7570047362 132.076757623 L 92.1712182986 132.076757623 A 0.5 0.5 0 1 1 91.4641115174 131.369650842 L 91.4641115174 129.076757623 L 83.4641115174 129.076757623 L 83.4641115174 131.369650842 A 0.5 0.5 0 0 1 82.7570047362 132.076757623 "
       stroke="#000000"
       stroke-width="0.35 px"
       style="stroke-width:0.35;stroke-miterlimit:4;stroke-dasharray:none;fill:none;fill-rule:evenodd;stroke:#006633;stroke-opacity:1" />
    <path
       id="Sketch006_w0001"
       d="M 104.757004736 136.676757623 A 0.5 0.5 0 0 1 105.464111517 137.383864405 L 105.464111517 138.469650842 A 0.5 0.5 0 0 1 104.757004736 139.176757623 L 94.3712182986 139.176757623 A 0.5 0.5 0 1 1 93.6641115174 138.469650842 L 93.6641115174 137.383864405 A 0.5 0.5 0 1 1 94.3712182986 136.676757623 L 104.757004736 136.676757623 "
       stroke="#000000"
       stroke-width="0.35 px"
       style="stroke-width:0.35;stroke-miterlimit:4;stroke-dasharray:none;fill:none;fill-rule:evenodd;stroke:#0000ff;stroke-opacity:1" />
    <path
       id="Sketch006_w0002"
       d="M 80.5570047362 136.676757623 A 0.5 0.5 0 1 1 81.2641115174 137.383864405 L 81.2641115174 138.469650842 A 0.5 0.5 0 1 1 80.5570047362 139.176757623 L 70.1712182986 139.176757623 A 0.5 0.5 0 0 1 69.4641115174 138.469650842 L 69.4641115174 137.383864405 A 0.5 0.5 0 0 1 70.1712182986 136.676757623 L 80.5570047362 136.676757623 "
       stroke="#000000"
       stroke-width="0.35 px"
       style="stroke-width:0.35;stroke-miterlimit:4;stroke-dasharray:none;fill:none;fill-rule:evenodd;stroke:#0000ff;stroke-opacity:1" />
    <circle
       cx="87.4641115174"
       cy="149.076757623"
       r="1.15"
       stroke="#000000"
       stroke-width="0.35 px"
       style="stroke-width:0.35;stroke-miterlimit:4;stroke-dasharray:none;fill:none;stroke:#0000ff;stroke-opacity:1"
       id="circle5548" />
    <path
       id="Sketch006_w0004"
       d="M 92.4641115174 147.226757623 A 7.0 4.05 0.0 0 1 106.464111517 147.226757623 A 7.0 4.05 0.0 0 1 92.4641115174 147.226757623 "
       stroke="#000000"
       stroke-width="0.35 px"
       style="stroke-width:0.35;stroke-miterlimit:4;stroke-dasharray:none;fill:none;fill-rule:evenodd;stroke:#0000ff;stroke-opacity:1" />
    <path
       id="Sketch006_w0005"
       d="M 82.4641115174 147.226757623 A 7.0 4.05 -0.0 0 1 68.4641115174 147.226757623 A 7.0 4.05 -0.0 0 1 82.4641115174 147.226757623 "
       stroke="#000000"
       stroke-width="0.35 px"
       style="stroke-width:0.35;stroke-miterlimit:4;stroke-dasharray:none;fill:none;fill-rule:evenodd;stroke:#0000ff;stroke-opacity:1" />
    <title
       id="title5552">coxa_up</title>
  </g>
</svg>
