<?xml version="1.0" encoding="UTF-8" standalone="no"?>
<svg
   xmlns:dc="http://purl.org/dc/elements/1.1/"
   xmlns:cc="http://creativecommons.org/ns#"
   xmlns:rdf="http://www.w3.org/1999/02/22-rdf-syntax-ns#"
   xmlns:svg="http://www.w3.org/2000/svg"
   xmlns="http://www.w3.org/2000/svg"
   xmlns:sodipodi="http://sodipodi.sourceforge.net/DTD/sodipodi-0.dtd"
   xmlns:inkscape="http://www.inkscape.org/namespaces/inkscape"
   width="46.92mm"
   height="29.32mm"
   viewBox="0 0 46.92 29.32"
   version="1.1"
   id="svg8519"
   sodipodi:docname="coxa_up.svg"
   inkscape:version="0.92.1 r15371">
  <metadata
     id="metadata8525">
    <rdf:RDF>
      <cc:Work
         rdf:about="">
        <dc:format>image/svg+xml</dc:format>
        <dc:type
           rdf:resource="http://purl.org/dc/dcmitype/StillImage" />
      </cc:Work>
    </rdf:RDF>
  </metadata>
  <defs
     id="defs8523" />
  <sodipodi:namedview
     pagecolor="#ffffff"
     bordercolor="#666666"
     borderopacity="1"
     objecttolerance="10"
     gridtolerance="10"
     guidetolerance="10"
     inkscape:pageopacity="0"
     inkscape:pageshadow="2"
     inkscape:window-width="732"
     inkscape:window-height="480"
     id="namedview8521"
     showgrid="false"
     inkscape:zoom="1.6014849"
     inkscape:cx="88.667713"
     inkscape:cy="55.407873"
     inkscape:window-x="0"
     inkscape:window-y="0"
     inkscape:window-maximized="0"
     inkscape:current-layer="Sketch006" />
  <g
     id="Sketch006"
     transform="translate(-63.999004,158.454268) scale(1,-1)">
    <path
       id="Sketch006_w0000"
       d="M 82.7518969484 132.594268051 L 76.1661105107 132.594268051 A 0.5 0.5 0 1 1 75.4590037295 131.887161269 L 75.4590037295 129.594268051 L 67.4590037295 129.594268051 L 67.4590037295 131.887161269 A 0.5 0.5 0 0 1 66.7518969484 132.594268051 L 64.4590037295 132.594268051 L 64.4590037295 154.994268051 L 66.7518969484 154.994268051 A 0.5 0.5 0 1 1 67.4590037295 155.701374832 L 67.4590037295 157.994268051 L 75.4590037295 157.994268051 L 75.4590037295 155.701374832 A 0.5 0.5 0 1 1 76.1661105107 154.994268051 L 82.7518969483 154.994268051 A 0.5 0.5 0 1 1 83.4590037295 155.701374832 L 83.4590037295 157.994268051 L 91.4590037295 157.994268051 L 91.4590037295 155.701374832 A 0.5 0.5 0 1 1 92.1661105107 154.994268051 L 98.7518969484 154.994268051 A 0.5 0.5 0 1 1 99.4590037295 155.701374832 L 99.4590037295 157.994268051 L 107.45900373 157.994268051 L 107.45900373 155.701374832 A 0.5 0.5 0 1 1 108.166110511 154.994268051 L 110.45900373 154.994268051 L 110.45900373 132.594268051 L 108.166110511 132.594268051 A 0.5 0.5 0 1 1 107.45900373 131.887161269 L 107.45900373 129.594268051 L 99.4590037295 129.594268051 L 99.4590037295 131.887161269 A 0.5 0.5 0 0 1 98.7518969484 132.594268051 L 92.1661105107 132.594268051 A 0.5 0.5 0 1 1 91.4590037295 131.887161269 L 91.4590037295 129.594268051 L 83.4590037295 129.594268051 L 83.4590037295 131.887161269 A 0.5 0.5 0 0 1 82.7518969484 132.594268051 "
       stroke="#000000"
       stroke-width="0.35 px"
       style="stroke-width:0.35;stroke-miterlimit:4;stroke-dasharray:none;fill:none;fill-rule:evenodd;stroke:#006633;stroke-opacity:1" />
    <path
       id="Sketch006_w0001"
       d="M 104.751896948 136.794268051 A 0.5 0.5 0 0 1 105.45900373 137.501374832 L 105.45900373 138.587161269 A 0.5 0.5 0 0 1 104.751896948 139.294268051 L 94.3661105107 139.294268051 A 0.5 0.5 0 1 1 93.6590037295 138.587161269 L 93.6590037295 137.501374832 A 0.5 0.5 0 0 1 94.3661105107 136.794268051 L 104.751896948 136.794268051 "
       stroke="#000000"
       stroke-width="0.35 px"
       style="stroke-width:0.35;stroke-miterlimit:4;stroke-dasharray:none;fill:none;fill-rule:evenodd;stroke:#0000ff;stroke-opacity:1" />
    <path
       id="Sketch006_w0002"
       d="M 80.5518969484 136.794268051 A 0.5 0.5 0 0 1 81.2590037295 137.501374832 L 81.2590037295 138.587161269 A 0.5 0.5 0 0 1 80.5518969484 139.294268051 L 70.1661105107 139.294268051 A 0.5 0.5 0 0 1 69.4590037295 138.587161269 L 69.4590037295 137.501374832 A 0.5 0.5 0 0 1 70.1661105107 136.794268051 L 80.5518969484 136.794268051 "
       stroke="#000000"
       stroke-width="0.35 px"
       style="stroke-width:0.35;stroke-miterlimit:4;stroke-dasharray:none;fill:none;fill-rule:evenodd;stroke:#0000ff;stroke-opacity:1" />
    <circle
       cx="87.4590037295"
       cy="149.094268051"
       r="1.15"
       stroke="#000000"
       stroke-width="0.35 px"
       style="stroke-width:0.35;stroke-miterlimit:4;stroke-dasharray:none;fill:none;stroke:#0000ff;stroke-opacity:1"
       id="circle8512" />
    <path
       id="Sketch006_w0004"
       d="M 92.4590037295 147.144268051 A 7.0 3.85 1.19939613796e-11 0 1 106.45900373 147.144268051 A 7.0 3.85 1.19939613796e-11 0 1 92.4590037295 147.144268051 "
       stroke="#000000"
       stroke-width="0.35 px"
       style="stroke-width:0.35;stroke-miterlimit:4;stroke-dasharray:none;fill:none;fill-rule:evenodd;stroke:#0000ff;stroke-opacity:1" />
    <path
       id="Sketch006_w0005"
       d="M 82.4590037295 147.144268051 A 7.0 3.85 -0.0 0 1 68.4590037295 147.144268051 A 7.0 3.85 -0.0 0 1 82.4590037295 147.144268051 "
       stroke="#000000"
       stroke-width="0.35 px"
       style="stroke-width:0.35;stroke-miterlimit:4;stroke-dasharray:none;fill:none;fill-rule:evenodd;stroke:#0000ff;stroke-opacity:1" />
    <title
       id="title8516">coxa_up</title>
  </g>
</svg>
