<?xml version="1.0" encoding="UTF-8" standalone="no"?>
<svg
   xmlns:dc="http://purl.org/dc/elements/1.1/"
   xmlns:cc="http://creativecommons.org/ns#"
   xmlns:rdf="http://www.w3.org/1999/02/22-rdf-syntax-ns#"
   xmlns:svg="http://www.w3.org/2000/svg"
   xmlns="http://www.w3.org/2000/svg"
   xmlns:sodipodi="http://sodipodi.sourceforge.net/DTD/sodipodi-0.dtd"
   xmlns:inkscape="http://www.inkscape.org/namespaces/inkscape"
   width="46.92mm"
   height="29.12mm"
   viewBox="0 0 46.92 29.12"
   version="1.1"
   id="svg2"
   inkscape:version="0.91 r13725"
   sodipodi:docname="coxa_down.svg">
  <metadata
     id="metadata16">
    <rdf:RDF>
      <cc:Work
         rdf:about="">
        <dc:format>image/svg+xml</dc:format>
        <dc:type
           rdf:resource="http://purl.org/dc/dcmitype/StillImage" />
      </cc:Work>
    </rdf:RDF>
  </metadata>
  <defs
     id="defs14" />
  <sodipodi:namedview
     pagecolor="#ffffff"
     bordercolor="#666666"
     borderopacity="1"
     objecttolerance="10"
     gridtolerance="10"
     guidetolerance="10"
     inkscape:pageopacity="0"
     inkscape:pageshadow="2"
     inkscape:window-width="748"
     inkscape:window-height="480"
     id="namedview12"
     showgrid="false"
     inkscape:zoom="1.79246"
     inkscape:cx="83.125981"
     inkscape:cy="51.590553"
     inkscape:window-x="10"
     inkscape:window-y="34"
     inkscape:window-maximized="0"
     inkscape:current-layer="Sketch005" />
  <g
     id="Sketch005"
     transform="translate(-4.910665,159.714787) scale(1,-1)">
    <path
       id="Sketch005_w0000"
       d="M 23.6635581366 134.054787071 L 17.077771699 134.054787071 A 0.5 0.5 0 1 1 16.3706649178 133.34768029 L 16.3706649178 131.054787071 L 8.37066491779 131.054787071 L 8.37066491779 133.34768029 A 0.5 0.5 0 1 1 7.6635581366 134.054787071 L 5.37066491779 134.054787071 L 5.37066491779 156.254787071 L 7.6635581366 156.254787071 A 0.5 0.5 0 1 1 8.37066491779 156.961893852 L 8.37066491779 159.254787071 L 16.3706649178 159.254787071 L 16.3706649178 156.961893852 A 0.5 0.5 0 1 1 17.077771699 156.254787071 L 24.0776473311 156.254787071 L 24.0776473311 154.254787071 A 5.8 5.8 0 0 1 25.5706649178 145.275417032 L 25.5706649178 144.354787071 A 2.8 2.8 0 1 1 31.1706649178 144.354787071 L 31.1706649178 145.275417032 A 5.8 5.8 0 0 1 32.6636825045 154.254787071 L 32.6636825045 156.254787071 L 39.6635581366 156.254787071 A 0.5 0.5 0 1 1 40.3706649178 156.961893852 L 40.3706649178 159.254787071 L 48.3706649178 159.254787071 L 48.3706649178 156.961893852 A 0.5 0.5 0 1 1 49.077771699 156.254787071 L 51.3706649178 156.254787071 L 51.3706649178 134.054787071 L 49.077771699 134.054787071 A 0.5 0.5 0 1 1 48.3706649178 133.34768029 L 48.3706649178 131.054787071 L 40.3706649178 131.054787071 L 40.3706649178 133.34768029 A 0.5 0.5 0 1 1 39.6635581366 134.054787071 L 33.077771699 134.054787071 A 0.5 0.5 0 1 1 32.3706649178 133.34768029 L 32.3706649178 131.054787071 L 24.3706649178 131.054787071 L 24.3706649178 133.34768029 A 0.5 0.5 0 1 1 23.6635581366 134.054787071 "
       stroke="#000000"
       stroke-width="0.35 px"
       style="stroke-width:0.35;stroke-miterlimit:4;stroke-dasharray:none;fill:none;fill-rule:evenodd;stroke:#006633;stroke-opacity:1" />
    <path
       id="Sketch005_w0001"
       d="M 45.6635581366 138.254787071 A 0.5 0.5 0 1 1 46.3706649178 138.961893852 L 46.3706649178 140.04768029 A 0.5 0.5 0 1 1 45.6635581366 140.754787071 L 35.277771699 140.754787071 A 0.5 0.5 0 0 1 34.5706649178 140.04768029 L 34.5706649178 138.961893852 A 0.5 0.5 0 1 1 35.277771699 138.254787071 L 45.6635581366 138.254787071 "
       stroke="#000000"
       stroke-width="0.35 px"
       style="stroke-width:0.35;stroke-miterlimit:4;stroke-dasharray:none;fill:none;fill-rule:evenodd;stroke:#0000ff;stroke-opacity:1" />
    <path
       id="Sketch005_w0002"
       d="M 21.4635581366 138.254787071 A 0.5 0.5 0 0 1 22.1706649178 138.961893852 L 22.1706649178 140.04768029 A 0.5 0.5 0 0 1 21.4635581366 140.754787071 L 11.077771699 140.754787071 A 0.5 0.5 0 0 1 10.3706649178 140.04768029 L 10.3706649178 138.961893852 A 0.5 0.5 0 0 1 11.077771699 138.254787071 L 21.4635581366 138.254787071 "
       stroke="#000000"
       stroke-width="0.35 px"
       style="stroke-width:0.35;stroke-miterlimit:4;stroke-dasharray:none;fill:none;fill-rule:evenodd;stroke:#0000ff;stroke-opacity:1" />
    <path
       id="Sketch005_w0003"
       d="M 17.6635581366 146.654787071 A 0.5 0.5 0 1 1 18.3706649178 147.361893852 L 18.3706649178 151.94768029 A 0.5 0.5 0 1 1 17.6635581366 152.654787071 L 9.07777169898 152.654787071 A 0.5 0.5 0 1 1 8.37066491779 151.94768029 L 8.37066491779 147.361893852 A 0.5 0.5 0 1 1 9.07777169898 146.654787071 L 17.6635581366 146.654787071 "
       stroke="#000000"
       stroke-width="0.35 px"
       style="stroke-width:0.35;stroke-miterlimit:4;stroke-dasharray:none;fill:none;fill-rule:evenodd;stroke:#0000ff;stroke-opacity:1" />
    <path
       id="Sketch005_w0004"
       d="M 47.6635581366 146.654787071 A 0.5 0.5 0 0 1 48.3706649178 147.361893852 L 48.3706649178 151.94768029 A 0.5 0.5 0 1 1 47.6635581366 152.654787071 L 39.077771699 152.654787071 A 0.5 0.5 0 1 1 38.3706649178 151.94768029 L 38.3706649178 147.361893852 A 0.5 0.5 0 0 1 39.077771699 146.654787071 L 47.6635581366 146.654787071 "
       stroke="#000000"
       stroke-width="0.35 px"
       style="stroke-width:0.35;stroke-miterlimit:4;stroke-dasharray:none;fill:none;fill-rule:evenodd;stroke:#0000ff;stroke-opacity:1" />
    <title
       id="title10">coxa_down</title>
  </g>
</svg>
