<?xml version="1.0" encoding="UTF-8" standalone="no"?>
<svg
   xmlns:dc="http://purl.org/dc/elements/1.1/"
   xmlns:cc="http://creativecommons.org/ns#"
   xmlns:rdf="http://www.w3.org/1999/02/22-rdf-syntax-ns#"
   xmlns:svg="http://www.w3.org/2000/svg"
   xmlns="http://www.w3.org/2000/svg"
   xmlns:sodipodi="http://sodipodi.sourceforge.net/DTD/sodipodi-0.dtd"
   xmlns:inkscape="http://www.inkscape.org/namespaces/inkscape"
   width="46.92mm"
   height="33.82mm"
   viewBox="0 0 46.92 33.82"
   version="1.1"
   id="svg2"
   inkscape:version="0.91 r13725"
   sodipodi:docname="coxa_front.svg">
  <metadata
     id="metadata21">
    <rdf:RDF>
      <cc:Work
         rdf:about="">
        <dc:format>image/svg+xml</dc:format>
        <dc:type
           rdf:resource="http://purl.org/dc/dcmitype/StillImage" />
      </cc:Work>
    </rdf:RDF>
  </metadata>
  <defs
     id="defs19" />
  <sodipodi:namedview
     pagecolor="#ffffff"
     bordercolor="#666666"
     borderopacity="1"
     objecttolerance="10"
     gridtolerance="10"
     guidetolerance="10"
     inkscape:pageopacity="0"
     inkscape:pageshadow="2"
     inkscape:window-width="1680"
     inkscape:window-height="1026"
     id="namedview17"
     showgrid="false"
     inkscape:zoom="1.79246"
     inkscape:cx="83.125981"
     inkscape:cy="59.917322"
     inkscape:window-x="0"
     inkscape:window-y="24"
     inkscape:window-maximized="1"
     inkscape:current-layer="Sketch004" />
  <g
     id="Sketch004"
     transform="translate(-0.730248,124.249125) scale(1,-1)">
    <path
       id="Sketch004_w0000"
       d="M 3.19024753984 123.789125208 L 45.1902475398 123.789125208 A 2.0 2.0 0 0 0 47.1902475398 121.789125208 L 47.1902475398 92.8891252084 A 2.0 2.0 0 0 0 45.1902475398 90.8891252084 L 3.19024753984 90.8891252084 A 2.0 2.0 0 0 0 1.19024753984 92.8891252084 L 1.19024753984 121.789125208 A 2.0 2.0 0 0 0 3.19024753984 123.789125208 "
       stroke="#000000"
       stroke-width="0.35 px"
       style="stroke-width:0.35;stroke-miterlimit:4;stroke-dasharray:none;fill:none;fill-rule:evenodd;stroke:#006633;stroke-opacity:1" />
    <circle
       cx="43.8902475398"
       cy="107.589125208"
       r="1.15"
       stroke="#000000"
       stroke-width="0.35 px"
       style="stroke-width:0.35;stroke-miterlimit:4;stroke-dasharray:none;fill:none;stroke:#0000ff;stroke-opacity:1"
       id="circle6" />
    <circle
       cx="4.49024753984"
       cy="107.589125208"
       r="1.15"
       stroke="#000000"
       stroke-width="0.35 px"
       style="stroke-width:0.35;stroke-miterlimit:4;stroke-dasharray:none;fill:none;stroke:#0000ff;stroke-opacity:1"
       id="circle8" />
    <path
       id="Sketch004_w0003"
       d="M 39.1902475398 95.8891252084 L 39.1902475398 97.12525575 A 5.8 5.8 0 0 1 38.9902475398 107.168495248 L 38.9902475398 108.089125208 A 2.8 2.8 0 0 1 33.3902475398 108.089125208 L 33.3902475398 107.168495248 A 5.8 5.8 0 0 1 30.4456848933 102.889125208 L 17.9348101864 102.889125208 A 5.8 5.8 0 0 1 14.9902475398 107.168495248 L 14.9902475398 108.089125208 A 2.8 2.8 0 1 1 9.39024753984 108.089125208 L 9.39024753984 107.168495248 A 5.8 5.8 0 0 1 9.19024753984 97.12525575 L 9.19024753984 95.8891252084 L 4.89735432103 95.8891252084 A 0.5 0.5 0 1 1 4.19024753984 95.1820184272 L 4.19024753986 93.5962319896 A 0.5 0.5 0 1 1 4.89735432104 92.8891252084 L 11.4831407586 92.8891252084 A 0.5 0.5 0 1 1 12.1902475398 93.5962319896 L 12.1902475398 96.2891252084 A 5.8 5.8 0 0 1 17.735515793 100.389125208 L 30.6449792866 100.389125208 A 5.8 5.8 0 0 1 36.1902475398 96.2891252084 L 36.1902475398 93.5962319896 A 0.5 0.5 0 1 1 36.897354321 92.8891252084 L 43.4831407586 92.8891252084 A 0.5 0.5 0 1 1 44.1902475398 93.5962319896 L 44.1902475398 95.1820184272 A 0.5 0.5 0 0 1 43.4831407587 95.8891252084 L 39.1902475398 95.8891252084 "
       stroke="#000000"
       stroke-width="0.35 px"
       style="stroke-width:0.35;stroke-miterlimit:4;stroke-dasharray:none;fill:none;fill-rule:evenodd;stroke:#0000ff;stroke-opacity:1" />
    <path
       id="Sketch004_w0004"
       d="M 12.1902475398 121.082018427 A 0.5 0.5 0 0 1 11.4831407587 121.789125208 L 4.89735432103 121.789125208 A 0.5 0.5 0 0 1 4.19024753984 121.082018427 L 4.19024753984 119.49623199 A 0.5 0.5 0 1 1 4.89735432103 118.789125208 L 11.4831407587 118.789125208 A 0.5 0.5 0 0 1 12.1902475398 119.49623199 L 12.1902475398 121.082018427 "
       stroke="#000000"
       stroke-width="0.35 px"
       style="stroke-width:0.35;stroke-miterlimit:4;stroke-dasharray:none;fill:none;fill-rule:evenodd;stroke:#0000ff;stroke-opacity:1" />
    <path
       id="Sketch004_w0005"
       d="M 44.1902475398 121.082018427 A 0.5 0.5 0 1 1 43.4831407587 121.789125208 L 36.897354321 121.789125208 A 0.5 0.5 0 1 1 36.1902475398 121.082018427 L 36.1902475398 119.49623199 A 0.5 0.5 0 1 1 36.897354321 118.789125208 L 43.4831407587 118.789125208 A 0.5 0.5 0 1 1 44.1902475398 119.49623199 L 44.1902475398 121.082018427 "
       stroke="#000000"
       stroke-width="0.35 px"
       style="stroke-width:0.35;stroke-miterlimit:4;stroke-dasharray:none;fill:none;fill-rule:evenodd;stroke:#0000ff;stroke-opacity:1" />
    <path
       id="Sketch004_w0006"
       d="M 28.1902475398 121.082018427 A 0.5 0.5 0 1 1 27.4831407587 121.789125208 L 20.897354321 121.789125208 A 0.5 0.5 0 0 1 20.1902475398 121.082018427 L 20.1902475398 119.49623199 A 0.5 0.5 0 0 1 20.897354321 118.789125208 L 27.4831407587 118.789125208 A 0.5 0.5 0 1 1 28.1902475398 119.49623199 L 28.1902475398 121.082018427 "
       stroke="#000000"
       stroke-width="0.35 px"
       style="stroke-width:0.35;stroke-miterlimit:4;stroke-dasharray:none;fill:none;fill-rule:evenodd;stroke:#0000ff;stroke-opacity:1" />
    <path
       id="Sketch004_w0007"
       d="M 28.1902475398 95.1820184271 A 0.5 0.5 0 1 1 27.4831407586 95.8891252083 L 20.8973543211 95.8891252084 A 0.5 0.5 0 1 1 20.1902475399 95.1820184271 L 20.1902475398 93.5962319895 A 0.5 0.5 0 1 1 20.897354321 92.8891252084 L 27.4831407587 92.8891252084 A 0.5 0.5 0 1 1 28.1902475398 93.5962319896 L 28.1902475398 95.1820184271 "
       stroke="#000000"
       stroke-width="0.35 px"
       style="stroke-width:0.35;stroke-miterlimit:4;stroke-dasharray:none;fill:none;fill-rule:evenodd;stroke:#0000ff;stroke-opacity:1" />
    <title
       id="title15">coxa_front</title>
  </g>
</svg>
