<?xml version="1.0" encoding="UTF-8" standalone="no"?>
<svg
   xmlns:dc="http://purl.org/dc/elements/1.1/"
   xmlns:cc="http://creativecommons.org/ns#"
   xmlns:rdf="http://www.w3.org/1999/02/22-rdf-syntax-ns#"
   xmlns:svg="http://www.w3.org/2000/svg"
   xmlns="http://www.w3.org/2000/svg"
   xmlns:sodipodi="http://sodipodi.sourceforge.net/DTD/sodipodi-0.dtd"
   xmlns:inkscape="http://www.inkscape.org/namespaces/inkscape"
   width="46.92mm"
   height="33.42mm"
   viewBox="0 0 46.92 33.42"
   version="1.1"
   id="svg2"
   inkscape:version="0.91 r13725"
   sodipodi:docname="coxa_front.svg">
  <metadata
     id="metadata21">
    <rdf:RDF>
      <cc:Work
         rdf:about="">
        <dc:format>image/svg+xml</dc:format>
        <dc:type
           rdf:resource="http://purl.org/dc/dcmitype/StillImage" />
      </cc:Work>
    </rdf:RDF>
  </metadata>
  <defs
     id="defs19" />
  <sodipodi:namedview
     pagecolor="#ffffff"
     bordercolor="#666666"
     borderopacity="1"
     objecttolerance="10"
     gridtolerance="10"
     guidetolerance="10"
     inkscape:pageopacity="0"
     inkscape:pageshadow="2"
     inkscape:window-width="748"
     inkscape:window-height="480"
     id="namedview17"
     showgrid="false"
     inkscape:zoom="1.79246"
     inkscape:cx="83.125981"
     inkscape:cy="59.208658"
     inkscape:window-x="10"
     inkscape:window-y="34"
     inkscape:window-maximized="0"
     inkscape:current-layer="Sketch004" />
  <g
     id="Sketch004"
     transform="translate(-0.730248,124.049125) scale(1,-1)">
    <path
       id="Sketch004_w0000"
       d="M 3.19024753867 123.589125443 L 45.1902475387 123.589125443 A 2.0 2.0 0 0 0 47.1902475387 121.589125443 L 47.1902475387 93.0891254428 A 2.0 2.0 0 0 0 45.1902475387 91.0891254428 L 3.19024753867 91.0891254428 A 2.0 2.0 0 0 0 1.19024753867 93.0891254428 L 1.19024753867 121.589125443 A 2.0 2.0 0 0 0 3.19024753867 123.589125443 "
       stroke="#000000"
       stroke-width="0.35 px"
       style="stroke-width:0.35;stroke-miterlimit:4;stroke-dasharray:none;fill:none;fill-rule:evenodd;stroke:#006633;stroke-opacity:1" />
    <circle
       cx="43.8902475387"
       cy="107.589125443"
       r="1.15"
       stroke="#000000"
       stroke-width="0.35 px"
       style="stroke-width:0.35;stroke-miterlimit:4;stroke-dasharray:none;fill:none;stroke:#0000ff;stroke-opacity:1"
       id="circle6" />
    <circle
       cx="4.49024753867"
       cy="107.589125443"
       r="1.15"
       stroke="#000000"
       stroke-width="0.35 px"
       style="stroke-width:0.35;stroke-miterlimit:4;stroke-dasharray:none;fill:none;stroke:#0000ff;stroke-opacity:1"
       id="circle8" />
    <path
       id="Sketch004_w0003"
       d="M 39.1902475387 95.8891254428 L 39.1902475387 97.1252559844 A 5.8 5.8 0 0 1 38.9902475387 107.168495482 L 38.9902475387 108.089125443 A 2.8 2.8 0 1 1 33.3902475387 108.089125443 L 33.3902475387 107.168495482 A 5.8 5.8 0 0 1 30.4456848921 102.889125443 L 17.9348101852 102.889125443 A 5.8 5.8 0 0 1 14.9902475387 107.168495482 L 14.9902475387 108.089125443 A 2.8 2.8 0 0 1 9.39024753867 108.089125443 L 9.39024753867 107.168495482 A 5.8 5.8 0 0 1 9.19024753867 97.1252559844 L 9.19024753867 95.8891254428 L 4.89735431985 95.8891254428 A 0.5 0.5 0 0 1 4.19024753867 95.1820186616 L 4.19024753867 93.796232224 A 0.5 0.5 0 0 1 4.89735431985 93.0891254428 L 11.4831407575 93.0891254428 A 0.5 0.5 0 0 1 12.1902475387 93.796232224 L 12.1902475387 96.2891254428 A 5.8 5.8 0 0 1 17.7355157919 100.389125443 L 30.6449792855 100.389125443 A 5.8 5.8 0 0 1 36.1902475387 96.2891254428 L 36.1902475387 93.796232224 A 0.5 0.5 0 1 1 36.8973543199 93.0891254428 L 43.4831407575 93.0891254428 A 0.5 0.5 0 0 1 44.1902475387 93.796232224 L 44.1902475387 95.1820186616 A 0.5 0.5 0 0 1 43.4831407575 95.8891254428 L 39.1902475387 95.8891254428 "
       stroke="#000000"
       stroke-width="0.35 px"
       style="stroke-width:0.35;stroke-miterlimit:4;stroke-dasharray:none;fill:none;fill-rule:evenodd;stroke:#0000ff;stroke-opacity:1" />
    <path
       id="Sketch004_w0004"
       d="M 12.1902475387 120.882018662 A 0.5 0.5 0 0 1 11.4831407575 121.589125443 L 4.89735431985 121.589125443 A 0.5 0.5 0 0 1 4.19024753867 120.882018662 L 4.19024753867 119.496232224 A 0.5 0.5 0 0 1 4.89735431985 118.789125443 L 11.4831407575 118.789125443 A 0.5 0.5 0 0 1 12.1902475387 119.496232224 L 12.1902475387 120.882018662 "
       stroke="#000000"
       stroke-width="0.35 px"
       style="stroke-width:0.35;stroke-miterlimit:4;stroke-dasharray:none;fill:none;fill-rule:evenodd;stroke:#0000ff;stroke-opacity:1" />
    <path
       id="Sketch004_w0005"
       d="M 44.1902475387 120.882018662 A 0.5 0.5 0 0 1 43.4831407575 121.589125443 L 36.8973543199 121.589125443 A 0.5 0.5 0 1 1 36.1902475387 120.882018662 L 36.1902475387 119.496232224 A 0.5 0.5 0 1 1 36.8973543199 118.789125443 L 43.4831407575 118.789125443 A 0.5 0.5 0 0 1 44.1902475387 119.496232224 L 44.1902475387 120.882018662 "
       stroke="#000000"
       stroke-width="0.35 px"
       style="stroke-width:0.35;stroke-miterlimit:4;stroke-dasharray:none;fill:none;fill-rule:evenodd;stroke:#0000ff;stroke-opacity:1" />
    <path
       id="Sketch004_w0006"
       d="M 28.1902475387 120.882018662 A 0.5 0.5 0 1 1 27.4831407575 121.589125443 L 20.8973543199 121.589125443 A 0.5 0.5 0 1 1 20.1902475387 120.882018662 L 20.1902475387 119.496232224 A 0.5 0.5 0 1 1 20.8973543199 118.789125443 L 27.4831407575 118.789125443 A 0.5 0.5 0 0 1 28.1902475387 119.496232224 L 28.1902475387 120.882018662 "
       stroke="#000000"
       stroke-width="0.35 px"
       style="stroke-width:0.35;stroke-miterlimit:4;stroke-dasharray:none;fill:none;fill-rule:evenodd;stroke:#0000ff;stroke-opacity:1" />
    <path
       id="Sketch004_w0007"
       d="M 28.1902475387 95.1820186616 A 0.5 0.5 0 1 1 27.4831407575 95.8891254428 L 20.8973543199 95.8891254428 A 0.5 0.5 0 1 1 20.1902475387 95.1820186616 L 20.1902475387 93.796232224 A 0.5 0.5 0 1 1 20.8973543199 93.0891254428 L 27.4831407575 93.0891254428 A 0.5 0.5 0 1 1 28.1902475387 93.796232224 L 28.1902475387 95.1820186616 "
       stroke="#000000"
       stroke-width="0.35 px"
       style="stroke-width:0.35;stroke-miterlimit:4;stroke-dasharray:none;fill:none;fill-rule:evenodd;stroke:#0000ff;stroke-opacity:1" />
    <title
       id="title15">coxa_front</title>
  </g>
</svg>
