<?xml version="1.0" encoding="UTF-8" standalone="no"?>
<svg
   xmlns:dc="http://purl.org/dc/elements/1.1/"
   xmlns:cc="http://creativecommons.org/ns#"
   xmlns:rdf="http://www.w3.org/1999/02/22-rdf-syntax-ns#"
   xmlns:svg="http://www.w3.org/2000/svg"
   xmlns="http://www.w3.org/2000/svg"
   xmlns:sodipodi="http://sodipodi.sourceforge.net/DTD/sodipodi-0.dtd"
   xmlns:inkscape="http://www.inkscape.org/namespaces/inkscape"
   width="46.9199996862mm"
   height="33.4199999938mm"
   viewBox="0 0 46.9199996862 33.4199999938"
   version="1.1"
   id="svg2"
   inkscape:version="0.91 r13725"
   sodipodi:docname="coxa_back.svg">
  <metadata
     id="metadata23">
    <rdf:RDF>
      <cc:Work
         rdf:about="">
        <dc:format>image/svg+xml</dc:format>
        <dc:type
           rdf:resource="http://purl.org/dc/dcmitype/StillImage" />
      </cc:Work>
    </rdf:RDF>
  </metadata>
  <defs
     id="defs21" />
  <sodipodi:namedview
     pagecolor="#ffffff"
     bordercolor="#666666"
     borderopacity="1"
     objecttolerance="10"
     gridtolerance="10"
     guidetolerance="10"
     inkscape:pageopacity="0"
     inkscape:pageshadow="2"
     inkscape:window-width="748"
     inkscape:window-height="480"
     id="namedview19"
     showgrid="false"
     inkscape:zoom="1.79246"
     inkscape:cx="83.125981"
     inkscape:cy="59.208658"
     inkscape:window-x="10"
     inkscape:window-y="34"
     inkscape:window-maximized="0"
     inkscape:current-layer="Sketch003" />
  <g
     id="Sketch003"
     transform="translate(-64.876251,122.516990) scale(1,-1)">
    <path
       id="Sketch003_w0000"
       d="M 67.3362509786 122.056989931 L 109.336251062 122.056989931 A 2.0 2.0 0 0 0 111.33625102 120.056989931 L 111.33625102 91.5569899307 A 2.0 2.0 0 0 0 109.336250873 89.5569899307 L 99.3362510204 89.5569899307 A 3.41421356237 3.41421356237 0 0 0 96.9220374581 90.5569899307 A 3.41421356237 3.41421356237 0 0 1 94.5078239533 91.5569899307 L 82.1646791196 91.5569899307 A 3.41421356237 3.41421356237 0 0 1 79.7504645828 90.5569899307 A 3.41421356238 3.41421356238 0 0 0 77.3362510204 89.5569899307 L 67.3362514185 89.5569899307 A 2.0 2.0 0 0 0 65.3362513281 91.5569899307 L 65.3362513281 120.056989931 A 2.0 2.0 0 0 0 67.3362509786 122.056989931 "
       stroke="#000000"
       stroke-width="0.35 px"
       style="stroke-width:0.35;stroke-miterlimit:4;stroke-dasharray:none;fill:none;fill-rule:evenodd;stroke:#006633;stroke-opacity:1" />
    <circle
       cx="108.03625102"
       cy="106.056989931"
       r="1.45"
       stroke="#000000"
       stroke-width="0.35 px"
       style="stroke-width:0.35;stroke-miterlimit:4;stroke-dasharray:none;fill:none;stroke:#0000ff;stroke-opacity:1"
       id="circle6" />
    <circle
       cx="68.6362510204"
       cy="106.056989931"
       r="1.45"
       stroke="#000000"
       stroke-width="0.35 px"
       style="stroke-width:0.35;stroke-miterlimit:4;stroke-dasharray:none;fill:none;stroke:#0000ff;stroke-opacity:1"
       id="circle8" />
    <path
       id="Sketch003_w0003"
       d="M 102.33625102 109.306989931 A 14.0 4.95 -0.0 0 1 74.3362510204 109.306989931 A 14.0 4.95 -0.0 0 1 102.33625102 109.306989931 "
       stroke="#000000"
       stroke-width="0.35 px"
       style="stroke-width:0.35;stroke-miterlimit:4;stroke-dasharray:none;fill:none;fill-rule:evenodd;stroke:#0000ff;stroke-opacity:1" />
    <path
       id="Sketch003_w0004"
       d="M 108.33625102 93.6498831496 A 0.5 0.5 0 1 1 107.629144239 94.3569899307 L 101.043357802 94.3569899307 A 0.5 0.5 0 1 1 100.33625102 93.6498831496 L 100.33625102 92.2640967119 A 0.5 0.5 0 0 1 101.043357802 91.5569899307 L 107.629144239 91.5569899307 A 0.5 0.5 0 0 1 108.33625102 92.2640967119 L 108.33625102 93.6498831496 "
       stroke="#000000"
       stroke-width="0.35 px"
       style="stroke-width:0.35;stroke-miterlimit:4;stroke-dasharray:none;fill:none;fill-rule:evenodd;stroke:#0000ff;stroke-opacity:1" />
    <path
       id="Sketch003_w0005"
       d="M 76.3362510204 93.6498831496 A 0.5 0.5 0 1 1 75.6291442392 94.3569899307 L 69.0433581093 94.3569899307 A 0.5 0.5 0 1 1 68.3362513281 93.6498831496 L 68.3362513281 92.2640967119 A 0.5 0.5 0 0 1 69.0433581093 91.5569899307 L 75.6291442392 91.5569899307 A 0.5 0.5 0 1 1 76.3362510204 92.2640967119 L 76.3362510204 93.6498831496 "
       stroke="#000000"
       stroke-width="0.35 px"
       style="stroke-width:0.35;stroke-miterlimit:4;stroke-dasharray:none;fill:none;fill-rule:evenodd;stroke:#0000ff;stroke-opacity:1" />
    <path
       id="Sketch003_w0006"
       d="M 94.2362510204 100.64988315 A 0.5 0.5 0 0 1 93.5291442392 101.356989931 L 83.1433578016 101.356989931 A 0.5 0.5 0 1 1 82.4362510204 100.64988315 L 82.4362510204 99.5640967119 A 0.5 0.5 0 1 1 83.1433578016 98.8569899307 L 93.5291442392 98.8569899307 A 0.5 0.5 0 0 1 94.2362510204 99.5640967119 L 94.2362510204 100.64988315 "
       stroke="#000000"
       stroke-width="0.35 px"
       style="stroke-width:0.35;stroke-miterlimit:4;stroke-dasharray:none;fill:none;fill-rule:evenodd;stroke:#0000ff;stroke-opacity:1" />
    <path
       id="Sketch003_w0007"
       d="M 76.3362510204 119.34988315 A 0.5 0.5 0 1 1 75.6291442392 120.056989931 L 69.0433578016 120.056989931 A 0.5 0.5 0 1 1 68.3362510204 119.34988315 L 68.3362510204 117.964096712 A 0.5 0.5 0 0 1 69.0433578016 117.256989931 L 75.6291442392 117.256989931 A 0.5 0.5 0 1 1 76.3362510204 117.964096712 L 76.3362510204 119.34988315 "
       stroke="#000000"
       stroke-width="0.35 px"
       style="stroke-width:0.35;stroke-miterlimit:4;stroke-dasharray:none;fill:none;fill-rule:evenodd;stroke:#0000ff;stroke-opacity:1" />
    <path
       id="Sketch003_w0008"
       d="M 108.33625102 119.34988315 A 0.5 0.5 0 0 1 107.629144239 120.056989931 L 101.043357802 120.056989931 A 0.5 0.5 0 1 1 100.33625102 119.34988315 L 100.33625102 117.964096712 A 0.5 0.5 0 1 1 101.043357802 117.256989931 L 107.629144239 117.256989931 A 0.5 0.5 0 0 1 108.33625102 117.964096712 L 108.33625102 119.34988315 "
       stroke="#000000"
       stroke-width="0.35 px"
       style="stroke-width:0.35;stroke-miterlimit:4;stroke-dasharray:none;fill:none;fill-rule:evenodd;stroke:#0000ff;stroke-opacity:1" />
    <path
       id="Sketch003_w0009"
       d="M 92.3362510204 119.34988315 A 0.5 0.5 0 0 1 91.6291442392 120.056989931 L 85.0433578016 120.056989931 A 0.5 0.5 0 1 1 84.3362510204 119.34988315 L 84.3362510204 117.964096712 A 0.5 0.5 0 1 1 85.0433578016 117.256989931 L 91.6291442392 117.256989931 A 0.5 0.5 0 0 1 92.3362510204 117.964096712 L 92.3362510204 119.34988315 "
       stroke="#000000"
       stroke-width="0.35 px"
       style="stroke-width:0.35;stroke-miterlimit:4;stroke-dasharray:none;fill:none;fill-rule:evenodd;stroke:#0000ff;stroke-opacity:1" />
    <title
       id="title17">coxa_back</title>
  </g>
</svg>
