<?xml version="1.0"?>
<!DOCTYPE svg PUBLIC "-//W3C//DTD SVG 1.1//EN" "http://www.w3.org/Graphics/SVG/1.1/DTD/svg11.dtd">
<svg width="48.858mm" height="26.358mm" viewBox="0 0 48.858 26.358" xmlns="http://www.w3.org/2000/svg" version="1.1">
<g id="Sketch001" transform="translate(-10.631246,126.324201) scale(1,-1)">
<path id="Sketch001_w0000"  d="M 11.1102457863 125.845201 L 59.0102457863 125.845201 L 59.0102457863 100.445201 L 11.1102457863 100.445201 L 11.1102457863 125.845201 " stroke="#000000" stroke-width="0.35 px" style="stroke-width:0.35;stroke-miterlimit:4;stroke-dasharray:none;fill:none;fill-rule: evenodd "/>
<path id="Sketch001_w0001"  d="M 41.2602457863 107.145201 L 53.0602457863 107.145201 L 53.0602457863 104.645201 L 41.2602457863 104.645201 L 41.2602457863 107.145201 " stroke="#000000" stroke-width="0.35 px" style="stroke-width:0.35;stroke-miterlimit:4;stroke-dasharray:none;fill:none;fill-rule: evenodd "/>
<path id="Sketch001_w0002"  d="M 17.0602457863 107.145201 L 28.8602457863 107.145201 L 28.8602457863 104.645201 L 17.0602457863 104.645201 L 17.0602457863 107.145201 " stroke="#000000" stroke-width="0.35 px" style="stroke-width:0.35;stroke-miterlimit:4;stroke-dasharray:none;fill:none;fill-rule: evenodd "/>
<circle cx="54.5602457863" cy="111.845201" r="1.2" stroke="#000000" stroke-width="0.35 px" style="stroke-width:0.35;stroke-miterlimit:4;stroke-dasharray:none;fill:none"/>
<circle cx="15.5602457863" cy="111.845201" r="1.2" stroke="#000000" stroke-width="0.35 px" style="stroke-width:0.35;stroke-miterlimit:4;stroke-dasharray:none;fill:none"/>
<path id="Sketch001_w0005"  d="M 32.2602457863 110.945201 A 2.8 2.8 0 1 1 37.8602457863 110.945201 L 37.8602457863 111.751936131 A 5.9 5.9 0 1 1 32.2602457863 111.751936131 L 32.2602457863 110.945201 " stroke="#000000" stroke-width="0.35 px" style="stroke-width:0.35;stroke-miterlimit:4;stroke-dasharray:none;fill:none;fill-rule: evenodd "/>
<path id="Sketch001_w0006"  d="M 45.0602457863 119.245201 L 56.0602457863 119.245201 L 56.0602457863 116.245201 L 45.0602457863 116.245201 L 45.0602457863 119.245201 " stroke="#000000" stroke-width="0.35 px" style="stroke-width:0.35;stroke-miterlimit:4;stroke-dasharray:none;fill:none;fill-rule: evenodd "/>
<path id="Sketch001_w0007"  d="M 14.0602457863 119.245201 L 14.0602457863 116.245201 L 25.0602457863 116.245201 L 25.0602457863 119.245201 L 14.0602457863 119.245201 " stroke="#000000" stroke-width="0.35 px" style="stroke-width:0.35;stroke-miterlimit:4;stroke-dasharray:none;fill:none;fill-rule: evenodd "/>
<title>coxa_down</title>
</g>
</svg>