<?xml version="1.0" encoding="UTF-8" standalone="no"?>
<svg
   xmlns:dc="http://purl.org/dc/elements/1.1/"
   xmlns:cc="http://creativecommons.org/ns#"
   xmlns:rdf="http://www.w3.org/1999/02/22-rdf-syntax-ns#"
   xmlns:svg="http://www.w3.org/2000/svg"
   xmlns="http://www.w3.org/2000/svg"
   xmlns:sodipodi="http://sodipodi.sourceforge.net/DTD/sodipodi-0.dtd"
   xmlns:inkscape="http://www.inkscape.org/namespaces/inkscape"
   width="46.92mm"
   height="29.32mm"
   viewBox="0 0 46.92 29.32"
   version="1.1"
   id="svg2"
   inkscape:version="0.91 r13725"
   sodipodi:docname="coxa_up.svg">
  <metadata
     id="metadata18">
    <rdf:RDF>
      <cc:Work
         rdf:about="">
        <dc:format>image/svg+xml</dc:format>
        <dc:type
           rdf:resource="http://purl.org/dc/dcmitype/StillImage" />
      </cc:Work>
    </rdf:RDF>
  </metadata>
  <defs
     id="defs16" />
  <sodipodi:namedview
     pagecolor="#ffffff"
     bordercolor="#666666"
     borderopacity="1"
     objecttolerance="10"
     gridtolerance="10"
     guidetolerance="10"
     inkscape:pageopacity="0"
     inkscape:pageshadow="2"
     inkscape:window-width="748"
     inkscape:window-height="480"
     id="namedview14"
     showgrid="false"
     inkscape:zoom="1.4195321"
     inkscape:cx="83.125981"
     inkscape:cy="51.944881"
     inkscape:window-x="10"
     inkscape:window-y="34"
     inkscape:window-maximized="0"
     inkscape:current-layer="Sketch006" />
  <g
     id="Sketch006"
     transform="translate(-63.946915,158.147442) scale(1,-1)">
    <path
       id="Sketch006_w0000"
       d="M 82.6998087164 132.287441598 L 76.1140222787 132.287441598 A 0.5 0.5 0 0 1 75.4069154975 131.580334816 L 75.4069154975 129.287441598 L 67.4069154975 129.287441598 L 67.4069154975 131.580334816 A 0.5 0.5 0 1 1 66.6998087164 132.287441598 L 64.4069154975 132.287441598 L 64.4069154975 154.687441598 L 66.6998087164 154.687441598 A 0.5 0.5 0 1 1 67.4069154975 155.394548379 L 67.4069154975 157.687441598 L 75.4069154975 157.687441598 L 75.4069154975 155.394548379 A 0.5 0.5 0 0 1 76.1140222787 154.687441598 L 82.6998087164 154.687441598 A 0.5 0.5 0 1 1 83.4069154975 155.394548379 L 83.4069154975 157.687441598 L 91.4069154975 157.687441598 L 91.4069154975 155.394548379 A 0.5 0.5 0 0 1 92.1140222787 154.687441598 L 98.6998087164 154.687441598 A 0.5 0.5 0 0 1 99.4069154975 155.394548379 L 99.4069154975 157.687441598 L 107.406915498 157.687441598 L 107.406915498 155.394548379 A 0.5 0.5 0 0 1 108.114022279 154.687441598 L 110.406915498 154.687441598 L 110.406915498 132.287441598 L 108.114022279 132.287441598 A 0.5 0.5 0 1 1 107.406915498 131.580334816 L 107.406915498 129.287441598 L 99.4069154975 129.287441598 L 99.4069154975 131.580334816 A 0.5 0.5 0 0 1 98.6998087164 132.287441598 L 92.1140222787 132.287441598 A 0.5 0.5 0 0 1 91.4069154975 131.580334816 L 91.4069154975 129.287441598 L 83.4069154975 129.287441598 L 83.4069154975 131.580334816 A 0.5 0.5 0 0 1 82.6998087164 132.287441598 "
       stroke="#000000"
       stroke-width="0.35 px"
       style="stroke-width:0.35;stroke-miterlimit:4;stroke-dasharray:none;fill:none;fill-rule:evenodd;stroke:#006633;stroke-opacity:1" />
    <path
       id="Sketch006_w0001"
       d="M 104.699808716 136.887441598 A 0.5 0.5 0 0 1 105.406915498 137.594548379 L 105.406915498 138.680334816 A 0.5 0.5 0 0 1 104.699808716 139.387441598 L 94.3140222787 139.387441598 A 0.5 0.5 0 1 1 93.6069154975 138.680334816 L 93.6069154975 137.594548379 A 0.5 0.5 0 1 1 94.3140222787 136.887441598 L 104.699808716 136.887441598 "
       stroke="#000000"
       stroke-width="0.35 px"
       style="stroke-width:0.35;stroke-miterlimit:4;stroke-dasharray:none;fill:none;fill-rule:evenodd;stroke:#0000ff;stroke-opacity:1" />
    <path
       id="Sketch006_w0002"
       d="M 80.4998087164 136.887441598 A 0.5 0.5 0 1 1 81.2069154975 137.594548379 L 81.2069154975 138.680334816 A 0.5 0.5 0 1 1 80.4998087164 139.387441598 L 70.1140222787 139.387441598 A 0.5 0.5 0 1 1 69.4069154975 138.680334816 L 69.4069154975 137.594548379 A 0.5 0.5 0 1 1 70.1140222787 136.887441598 L 80.4998087164 136.887441598 "
       stroke="#000000"
       stroke-width="0.35 px"
       style="stroke-width:0.35;stroke-miterlimit:4;stroke-dasharray:none;fill:none;fill-rule:evenodd;stroke:#0000ff;stroke-opacity:1" />
    <circle
       cx="87.4069154975"
       cy="148.787441598"
       r="1.15"
       stroke="#000000"
       stroke-width="0.35 px"
       style="stroke-width:0.35;stroke-miterlimit:4;stroke-dasharray:none;fill:none;stroke:#0000ff;stroke-opacity:1"
       id="circle8" />
    <path
       id="Sketch006_w0004"
       d="M 92.4069154975 147.037441598 A 7.0 3.65 2.84217094304e-13 0 1 106.406915498 147.037441598 A 7.0 3.65 2.84217094304e-13 0 1 92.4069154975 147.037441598 "
       stroke="#000000"
       stroke-width="0.35 px"
       style="stroke-width:0.35;stroke-miterlimit:4;stroke-dasharray:none;fill:none;fill-rule:evenodd;stroke:#0000ff;stroke-opacity:1" />
    <path
       id="Sketch006_w0005"
       d="M 82.4069154975 147.037441598 A 7.0 3.65 -0.0 0 1 68.4069154975 147.037441598 A 7.0 3.65 -0.0 0 1 82.4069154975 147.037441598 "
       stroke="#000000"
       stroke-width="0.35 px"
       style="stroke-width:0.35;stroke-miterlimit:4;stroke-dasharray:none;fill:none;fill-rule:evenodd;stroke:#0000ff;stroke-opacity:1" />
    <title
       id="title12">coxa_up</title>
  </g>
</svg>
