<?xml version="1.0" encoding="UTF-8" standalone="no"?>
<svg
   xmlns:dc="http://purl.org/dc/elements/1.1/"
   xmlns:cc="http://creativecommons.org/ns#"
   xmlns:rdf="http://www.w3.org/1999/02/22-rdf-syntax-ns#"
   xmlns:svg="http://www.w3.org/2000/svg"
   xmlns="http://www.w3.org/2000/svg"
   xmlns:sodipodi="http://sodipodi.sourceforge.net/DTD/sodipodi-0.dtd"
   xmlns:inkscape="http://www.inkscape.org/namespaces/inkscape"
   width="46.9199979008mm"
   height="34.1199999588mm"
   viewBox="0 0 46.9199979008 34.1199999588"
   version="1.1"
   id="svg4242"
   inkscape:version="0.91 r13725"
   sodipodi:docname="coxa_back.svg">
  <metadata
     id="metadata4263">
    <rdf:RDF>
      <cc:Work
         rdf:about="">
        <dc:format>image/svg+xml</dc:format>
        <dc:type
           rdf:resource="http://purl.org/dc/dcmitype/StillImage" />
      </cc:Work>
    </rdf:RDF>
  </metadata>
  <defs
     id="defs4261" />
  <sodipodi:namedview
     pagecolor="#ffffff"
     bordercolor="#666666"
     borderopacity="1"
     objecttolerance="10"
     gridtolerance="10"
     guidetolerance="10"
     inkscape:pageopacity="0"
     inkscape:pageshadow="2"
     inkscape:window-width="1920"
     inkscape:window-height="1131"
     id="namedview4259"
     showgrid="false"
     inkscape:zoom="8.2218317"
     inkscape:cx="83.125981"
     inkscape:cy="60.448817"
     inkscape:window-x="1680"
     inkscape:window-y="24"
     inkscape:window-maximized="1"
     inkscape:current-layer="Sketch003" />
  <g
     id="Sketch003"
     transform="translate(-64.748170,122.895259) scale(1,-1)">
    <path
       id="Sketch003_w0000"
       d="M 67.2081708782 122.435259034 L 109.20816424 122.435259034 A 2.0 2.0 0 0 0 111.208167559 120.435259034 L 111.208167559 91.235259034 A 2.0 2.0 0 0 0 109.208167004 89.235259034 L 99.208167559 89.235259034 A 3.41421356237 3.41421356237 0 0 0 96.7939539966 90.235259034 A 3.41421356237 3.41421356237 0 0 1 94.3797412744 91.235259034 L 82.0365929743 91.235259034 A 3.41421356237 3.41421356237 0 0 1 79.6223811214 90.235259034 A 3.41421356238 3.41421356238 0 0 0 77.208167559 89.235259034 L 67.208169563 89.235259034 A 2.0 2.0 0 0 0 65.2081696171 91.235259034 L 65.2081696171 120.435259034 A 2.0 2.0 0 0 0 67.2081708782 122.435259034 "
       stroke="#000000"
       stroke-width="0.35 px"
       style="stroke-width:0.35;stroke-miterlimit:4;stroke-dasharray:none;fill:none;fill-rule:evenodd;stroke:#006633;stroke-opacity:1" />
    <circle
       cx="107.908167559"
       cy="106.235259034"
       r="1.45"
       stroke="#000000"
       stroke-width="0.35 px"
       style="stroke-width:0.35;stroke-miterlimit:4;stroke-dasharray:none;fill:none;stroke:#0000ff;stroke-opacity:1"
       id="circle4246" />
    <circle
       cx="68.508167559"
       cy="106.235259034"
       r="1.45"
       stroke="#000000"
       stroke-width="0.35 px"
       style="stroke-width:0.35;stroke-miterlimit:4;stroke-dasharray:none;fill:none;stroke:#0000ff;stroke-opacity:1"
       id="circle4248" />
    <path
       id="Sketch003_w0003"
       d="M 102.208167559 109.335259034 A 14.0 5.1 -0.0 0 1 74.208167559 109.335259034 A 14.0 5.1 -0.0 0 1 102.208167559 109.335259034 "
       stroke="#000000"
       stroke-width="0.35 px"
       style="stroke-width:0.35;stroke-miterlimit:4;stroke-dasharray:none;fill:none;fill-rule:evenodd;stroke:#0000ff;stroke-opacity:1" />
    <path
       id="Sketch003_w0004"
       d="M 108.208167559 93.5281522528 A 0.5 0.5 0 0 1 107.501060778 94.235259034 L 100.91527434 94.235259034 A 0.5 0.5 0 1 1 100.208167559 93.5281522528 L 100.208167559 91.9423658151 A 0.5 0.5 0 1 1 100.91527434 91.235259034 L 107.501060778 91.235259034 A 0.5 0.5 0 0 1 108.208167559 91.9423658151 L 108.208167559 93.5281522528 "
       stroke="#000000"
       stroke-width="0.35 px"
       style="stroke-width:0.35;stroke-miterlimit:4;stroke-dasharray:none;fill:none;fill-rule:evenodd;stroke:#0000ff;stroke-opacity:1" />
    <path
       id="Sketch003_w0005"
       d="M 76.208167559 93.5281522528 A 0.5 0.5 0 0 1 75.5010607778 94.235259034 L 68.9152763982 94.235259034 A 0.5 0.5 0 0 1 68.2081696171 93.5281522528 L 68.2081696171 91.9423658151 A 0.5 0.5 0 0 1 68.9152763982 91.235259034 L 75.5010607778 91.235259034 A 0.5 0.5 0 0 1 76.208167559 91.9423658151 L 76.208167559 93.5281522528 "
       stroke="#000000"
       stroke-width="0.35 px"
       style="stroke-width:0.35;stroke-miterlimit:4;stroke-dasharray:none;fill:none;fill-rule:evenodd;stroke:#0000ff;stroke-opacity:1" />
    <path
       id="Sketch003_w0006"
       d="M 94.108167559 100.528152253 A 0.5 0.5 0 0 1 93.4010607778 101.235259034 L 83.0152743402 101.235259034 A 0.5 0.5 0 0 1 82.308167559 100.528152253 L 82.308167559 99.4423658151 A 0.5 0.5 0 1 1 83.0152743402 98.735259034 L 93.4010607778 98.735259034 A 0.5 0.5 0 1 1 94.108167559 99.4423658151 L 94.108167559 100.528152253 "
       stroke="#000000"
       stroke-width="0.35 px"
       style="stroke-width:0.35;stroke-miterlimit:4;stroke-dasharray:none;fill:none;fill-rule:evenodd;stroke:#0000ff;stroke-opacity:1" />
    <path
       id="Sketch003_w0007"
       d="M 76.208167559 119.728152253 A 0.5 0.5 0 1 1 75.5010607778 120.435259034 L 68.9152743402 120.435259034 A 0.5 0.5 0 1 1 68.208167559 119.728152253 L 68.208167559 118.142365815 A 0.5 0.5 0 1 1 68.9152743402 117.435259034 L 75.5010607778 117.435259034 A 0.5 0.5 0 1 1 76.208167559 118.142365815 L 76.208167559 119.728152253 "
       stroke="#000000"
       stroke-width="0.35 px"
       style="stroke-width:0.35;stroke-miterlimit:4;stroke-dasharray:none;fill:none;fill-rule:evenodd;stroke:#0000ff;stroke-opacity:1" />
    <path
       id="Sketch003_w0008"
       d="M 108.208167559 119.728152253 A 0.5 0.5 0 1 1 107.501060778 120.435259034 L 100.91527434 120.435259034 A 0.5 0.5 0 0 1 100.208167559 119.728152253 L 100.208167559 118.142365815 A 0.5 0.5 0 1 1 100.91527434 117.435259034 L 107.501060778 117.435259034 A 0.5 0.5 0 0 1 108.208167559 118.142365815 L 108.208167559 119.728152253 "
       stroke="#000000"
       stroke-width="0.35 px"
       style="stroke-width:0.35;stroke-miterlimit:4;stroke-dasharray:none;fill:none;fill-rule:evenodd;stroke:#0000ff;stroke-opacity:1" />
    <path
       id="Sketch003_w0009"
       d="M 92.208167559 119.728152253 A 0.5 0.5 0 0 1 91.5010607778 120.435259034 L 84.9152743402 120.435259034 A 0.5 0.5 0 1 1 84.208167559 119.728152253 L 84.208167559 118.142365815 A 0.5 0.5 0 0 1 84.9152743402 117.435259034 L 91.5010607778 117.435259034 A 0.5 0.5 0 0 1 92.208167559 118.142365815 L 92.208167559 119.728152253 "
       stroke="#000000"
       stroke-width="0.35 px"
       style="stroke-width:0.35;stroke-miterlimit:4;stroke-dasharray:none;fill:none;fill-rule:evenodd;stroke:#0000ff;stroke-opacity:1" />
    <title
       id="title4257">coxa_back</title>
  </g>
</svg>
